<svg width="50" height="50" viewBox="0 0 50 50" fill="none" xmlns="http://www.w3.org/2000/svg">
<rect width="50" height="50" fill="#E5E5E5"/>
<g clip-path="url(#clip0_0_1)">
<rect width="1920" height="10131" transform="translate(-1157 -1660)" fill="white"/>
<rect x="-1157" y="-735" width="1920" height="856" fill="#101932"/>
<rect opacity="0.05" x="-672" y="-765" width="950" height="950" rx="475" fill="#143D85"/>
<rect opacity="0.1" x="-572" y="-665" width="750" height="750" rx="375" fill="#143D85"/>
<path opacity="0.03" fill-rule="evenodd" clip-rule="evenodd" d="M129.028 -657.036C105.807 -631.892 82.4806 -606.807 58.9019 -581.32C90.0329 -556.295 108.26 -522.264 129.95 -490.729C146.378 -466.907 164.382 -444.14 181.464 -420.749C185.061 -415.875 188.748 -415.593 194.294 -417.376C215.404 -424.242 236.634 -430.647 257.879 -437.037C259.975 -437.676 262.517 -436.859 264.822 -436.695L265 -433.872C262.651 -433.01 260.272 -432.029 257.909 -431.286C236.218 -424.509 214.587 -417.525 192.718 -411.179C186.295 -409.307 183.485 -406.364 182.088 -399.781C170.447 -343.384 176.453 -287.938 189.09 -232.433C192.718 -216.413 198.441 -206.888 216.653 -205.907C229.201 -205.283 241.54 -201.226 253.939 -198.684C254.177 -197.837 254.4 -196.99 254.578 -196.114C252.542 -195.415 250.312 -193.929 248.453 -194.271C233.089 -197.033 217.774 -200.06 202.515 -203.351C196.94 -204.555 192.554 -203.767 187.827 -200.408C155.447 -177.344 132.745 -146.701 115.44 -112.091C103.889 -89.0563 94.2997 -65.1305 83.8186 -41.6355C82.3616 -38.3364 80.652 -35.1414 78.7342 -31.1289C101.941 -10.2644 125.624 11.0163 149.351 32.297C146.616 38.5385 143.984 35.7595 141.041 33.144C123.037 17.0201 104.974 1.00011 87.0298 -15.1239C71.9549 -28.6175 72.0144 -28.6472 53.8175 -19.0471C29.1089 -5.98447 4.19215 6.64725 -20.2042 20.2003C-40.9434 31.658 -59.0214 46.2959 -73.9179 64.6935C-77.0251 68.5574 -77.7833 71.693 -75.9547 76.5673C-66.321 101.831 -57.0739 127.228 -47.7375 152.565C-47.5591 153.056 -47.2172 153.517 -47.1577 154.052C-46.9198 157.217 -46.7563 160.457 -46.5779 163.652C-48.6444 161.2 -51.4839 159.089 -52.5246 156.31C-62.2979 131.108 -71.7243 105.773 -80.8012 80.3122C-82.9272 74.3382 -85.7965 72.5252 -92.1 72.5995C-134.024 72.971 -174.596 81.8577 -215.212 90.8634C-237.646 95.8418 -260.109 101.117 -282.529 106.036C-287.093 107.002 -289.04 109.053 -290.081 113.467C-295.106 134.703 -300.473 155.805 -305.721 176.952C-306.42 179.672 -307.163 182.376 -307.802 184.947C-314.611 185.482 -313.05 181.856 -312.188 178.453C-306.479 155.285 -300.532 132.176 -295.403 108.83C-294.184 103.48 -294.526 96.8969 -296.563 91.7996C-315.087 44.9584 -352.001 21.4783 -401.225 14.2708C-419.05 11.6702 -436.994 10.0058 -454.82 7.58344C-459.607 6.88498 -462.55 8.22248 -465.717 11.6702C-486.819 34.6047 -508.049 57.4213 -529.406 80.119C-531.086 81.8132 -533.911 82.4819 -536.156 83.6262C-536.736 82.7494 -537.375 81.9023 -537.955 81.0256C-513.662 54.7814 -489.325 28.5521 -464.334 1.53513C-469.344 -4.24572 -474.087 -10.0266 -479.201 -15.4656C-496.506 -33.3581 -514.272 -50.7749 -531.235 -69.024C-557.713 -97.5121 -566.544 -112.848 -585.454 -159.734C-588.977 -158.724 -592.664 -157.758 -596.292 -156.614C-614.459 -150.966 -632.641 -145.215 -650.808 -139.747C-653.113 -139.018 -655.937 -139.806 -658.48 -139.925C-656.398 -141.619 -654.555 -144.041 -652.191 -144.844C-632.582 -151.249 -612.958 -157.535 -593.17 -163.42C-587.684 -165.025 -585.142 -167.923 -583.715 -173.273C-573.561 -210.588 -575.523 -247.874 -583.938 -284.981C-589.528 -309.546 -596.455 -333.769 -603.324 -357.992C-604.067 -360.519 -607.992 -363.327 -610.965 -363.981C-626.62 -367.622 -642.498 -370.55 -658.301 -373.73L-659 -376.271C-656.978 -376.925 -654.793 -378.411 -652.934 -378.114C-641.457 -376.152 -629.98 -374.25 -618.666 -371.426C-611.62 -369.643 -607.189 -370.966 -601.882 -376.331C-573.382 -405.309 -551.171 -438.092 -536.572 -475.72C-525.258 -504.817 -519.089 -534.97 -517.245 -565.94C-517.082 -569.462 -519.044 -574.009 -521.571 -576.61C-537.955 -593.536 -554.799 -610.061 -571.717 -626.958C-569.814 -631.312 -567.45 -629.469 -564.566 -626.676C-548.584 -611.131 -532.603 -595.557 -516.398 -580.28C-514.435 -578.437 -510.853 -576.639 -508.444 -577.085C-452.486 -587.547 -400.378 -606.703 -356.61 -643.751C-349.399 -649.829 -343.051 -656.903 -336.183 -663.322C-332.436 -666.785 -331.975 -670.337 -333.418 -675.166C-341.029 -701.321 -348.284 -727.61 -355.688 -753.854C-356.03 -755.073 -356.669 -756.366 -356.61 -757.599C-356.535 -760.081 -356.134 -762.533 -355.852 -765C-354.305 -763.157 -351.867 -761.537 -351.228 -759.427C-345.921 -741.49 -340.91 -723.479 -335.767 -705.542C-333.224 -696.551 -330.34 -687.605 -328.199 -678.555C-326.995 -673.339 -324.111 -670.857 -319.264 -668.925C-272.018 -650.171 -223.73 -649.948 -174.819 -660.529C-161.9 -663.322 -149.203 -667.246 -136.403 -670.337C-131.616 -671.466 -129.52 -673.784 -128.449 -678.525C-122.562 -704.323 -116.377 -730.047 -110.163 -755.771C-109.583 -757.911 -107.725 -759.754 -106.476 -761.716C-105.554 -761.315 -104.677 -760.884 -103.741 -760.453C-104.038 -758.283 -104.202 -756.069 -104.662 -753.944C-110.386 -729.438 -116.244 -704.992 -121.625 -680.353C-122.265 -677.247 -121.283 -672.491 -119.158 -670.203C-73.5165 -621.638 -16.9781 -593.789 49.7737 -585.838C52.42 -585.526 56.2853 -587.503 58.2478 -589.583C79.1207 -611.666 99.7706 -633.987 120.48 -656.159C122.695 -658.478 124.925 -663.01 129.088 -657.036H129.028ZM-460.097 -3.01227C-448.784 -15.1535 -438.005 -26.5221 -427.613 -38.2176C-426.231 -39.7779 -425.993 -43.5823 -426.915 -45.6628C-431.016 -55.7853 -435.5 -65.7491 -440.354 -75.533C-459.503 -114.008 -485.252 -147.444 -520.025 -173.822C-522.449 -175.635 -526.017 -178.117 -528.217 -177.478C-545.12 -172.767 -561.92 -167.328 -578.987 -162.038C-571.197 -134.055 -558.679 -109.535 -540.11 -88.6551C-514.376 -59.7508 -487.318 -32.0503 -460.097 -3.01227V-3.01227ZM178.297 -412.71C160.754 -437.096 143.747 -460.487 127.14 -484.22C112.645 -504.921 99.2652 -526.425 84.22 -546.814C76.1473 -557.796 65.696 -567.114 55.646 -577.858C42.7268 -563.963 31.0861 -551.643 19.8171 -538.937C18.6278 -537.555 19.2671 -533.573 20.3672 -531.448C27.979 -516.914 35.4718 -502.306 43.7675 -488.128C63.9417 -453.785 89.468 -423.915 122.74 -400.91C124.91 -399.409 128.226 -397.567 130.352 -398.176C146.556 -402.738 162.627 -407.865 178.297 -412.71V-412.71ZM-286.736 100.924C-219.419 87.6089 -155.076 66.9672 -85.9154 66.67C-91.4013 51.8687 -96.2478 38.0035 -101.853 24.3316C-103.486 21.0019 -106.332 18.4231 -109.806 17.1241C-128.33 11.2392 -147.404 11.477 -166.404 14.4789C-202.813 20.2449 -236.382 34.6004 -270.293 47.7968C-271.326 48.2416 -272.255 48.8968 -273.021 49.7208C-273.786 50.5447 -274.371 51.5192 -274.738 52.582C-278.827 68.1412 -282.514 83.7451 -286.736 100.924V100.924ZM-600.722 -369.539C-598.76 -368.41 -597.957 -367.667 -597.02 -367.459C-581.96 -364.368 -566.99 -361.262 -551.855 -358.542C-549.893 -358.2 -546.919 -359.672 -545.343 -361.202C-499.643 -405.487 -475.99 -459.551 -471.218 -521.922C-471.099 -524.166 -470.816 -527.316 -472.08 -528.579C-484.315 -540.959 -496.878 -553.011 -510.674 -566.445C-516.903 -489.183 -545.106 -423.469 -600.767 -369.539H-600.722ZM-505.515 -571.408C-493.221 -558.925 -481.58 -546.962 -469.627 -535.252C-468.304 -533.929 -465.182 -533.469 -463.16 -533.84C-413.832 -543.232 -368.027 -560.278 -330.251 -594.101C-314.388 -608.293 -314.448 -608.367 -320.097 -628.102C-323.288 -639.249 -326.499 -650.389 -329.731 -661.524C-377.676 -609.749 -438.63 -585.333 -505.515 -571.468V-571.408ZM-523.638 -185.533C-505.932 -191.031 -489.548 -195.995 -473.269 -201.478C-471.188 -202.162 -469.062 -205.461 -468.646 -207.824C-466.743 -218.806 -464.661 -229.803 -464.141 -240.859C-462.922 -267.163 -471.069 -292.01 -476.54 -317.393C-480.108 -333.769 -486.917 -342.597 -504.742 -343.577C-516.621 -344.201 -528.336 -347.813 -540.913 -350.265C-539.263 -294.552 -520.635 -241.9 -523.638 -185.607V-185.533ZM177.331 -406.379C162.285 -401.772 148.786 -397.269 135.05 -393.554C128.835 -391.89 126.278 -388.799 125 -382.632C114.801 -333.264 120.331 -284.833 131.883 -236.401C134.47 -225.612 139.019 -220.827 150.169 -219.519C162.568 -218.108 174.788 -214.927 186.147 -212.743C180.973 -245.02 174.967 -276.525 171.101 -308.298C167.251 -340.59 170.12 -372.883 177.331 -406.379V-406.379ZM74.4823 -35.2156C101.138 -99.8304 126.174 -163.524 186.043 -206.62C169.198 -210.023 154.213 -213.278 139.093 -215.968C136.744 -216.399 133.221 -215.091 131.318 -213.426C120.257 -203.797 108.587 -194.627 98.8786 -183.824C78.749 -161.384 65.4284 -134.768 53.7283 -107.439C48.1829 -94.6291 42.8755 -81.7151 37.2707 -68.3701L74.4823 -35.2156V-35.2156ZM-541.597 -356.551C-522.389 -352.687 -504.846 -349.061 -487.199 -345.881C-485.297 -345.539 -482.412 -347.545 -480.732 -349.224C-445.483 -384.251 -426.677 -426.59 -422.871 -475.452C-422.693 -477.815 -422.93 -481.069 -424.372 -482.6C-437.009 -495.811 -449.928 -508.666 -462.788 -521.61C-463.546 -521.342 -464.349 -521.06 -465.033 -520.778C-470.727 -457.589 -494.573 -402.515 -541.597 -356.566V-356.551ZM-131.482 -666.072C-196.138 -646.604 -259.322 -638.906 -324.052 -664.853C-319.963 -650.23 -315.979 -637.658 -313.035 -624.833C-311.43 -617.685 -307.549 -614.163 -300.755 -611.547C-249.301 -591.857 -198.293 -597.905 -147.345 -613.42C-146.327 -613.846 -145.411 -614.482 -144.655 -615.286C-143.9 -616.09 -143.322 -617.044 -142.959 -618.086C-139.079 -633.378 -135.57 -648.774 -131.482 -666.072V-666.072ZM-124.852 -667.394C-128.717 -650.943 -132.285 -636.38 -135.452 -621.727C-135.61 -620.54 -135.521 -619.334 -135.191 -618.183C-134.861 -617.032 -134.297 -615.962 -133.534 -615.04C-95.5788 -574.098 -48.689 -549.652 7.26957 -541.999C9.70772 -541.687 13.2163 -541.687 14.6137 -543.098C26.076 -554.809 37.1221 -566.891 49.4615 -580.087C-19.6542 -589.137 -77.1737 -617.284 -124.852 -667.394V-667.394ZM13.2162 -532.31C0.817352 -519.039 -10.8531 -506.734 -22.0924 -494.132C-23.1925 -492.869 -22.7019 -489.288 -21.7504 -487.356C-17.5431 -478.707 -13.0979 -470.206 -8.42975 -461.721C8.53325 -430.81 29.5846 -403.125 58.783 -382.171C61.1914 -380.432 64.7594 -378.099 67.034 -378.738C84.4579 -383.642 101.644 -389.17 120.896 -395.144C70.0965 -430.528 39.1142 -478.855 13.2162 -532.31V-532.31ZM-461.51 -528.104C-452.456 -519.054 -444.264 -510.687 -435.894 -502.499C-419.333 -486.36 -419.273 -486.3 -396.557 -492.096C-360.966 -501.236 -328.482 -516.111 -302.004 -541.939C-298.436 -545.461 -297.276 -548.508 -298.837 -553.531C-302.762 -565.613 -305.884 -577.917 -309.393 -590.148C-310.434 -593.893 -311.697 -597.638 -313.258 -602.571C-354.216 -559.936 -405.388 -539.814 -461.51 -528.119V-528.104ZM120.079 -388.769C103.621 -383.716 88.9179 -378.872 73.9619 -374.726C68.1193 -373.076 65.4878 -370.342 64.2093 -364.368C55.4379 -322.252 60.5223 -280.894 71.7319 -239.953C72.3414 -237.56 75.9987 -234.93 78.7639 -234.246C88.457 -231.824 98.3583 -230.204 108.23 -228.243C114.816 -226.979 121.327 -225.657 129.103 -224.156C114.533 -278.829 107.591 -332.402 120.079 -388.814V-388.769ZM126.813 -218.033C124.004 -218.851 122.309 -219.475 120.629 -219.817C107.13 -222.566 93.7645 -225.597 80.1465 -227.693C76.2812 -228.287 71.1967 -227.321 67.9558 -225.152C52.8511 -215.135 40.0508 -202.37 31.3389 -186.885C17.1411 -161.547 4.50436 -135.392 -8.75681 -109.653C5.61937 -96.7691 18.4197 -85.3412 32.558 -72.7243C55.0365 -127.457 76.415 -181.357 126.813 -218.033V-218.033ZM-519.297 -180.956C-471.931 -145.319 -442.049 -99.236 -420.819 -47.4312C-419.556 -47.8028 -418.916 -47.773 -418.634 -48.1C-411.245 -55.8722 -403.916 -63.7336 -396.601 -71.5652C-383.905 -85.3263 -383.905 -85.356 -391.695 -102.535C-407.737 -137.889 -429.546 -168.978 -460.9 -193.008C-463.353 -194.895 -467.337 -196.886 -469.82 -196.188C-485.772 -191.73 -501.531 -186.514 -519.297 -180.956V-180.956ZM-145.249 -607.981C-199.988 -591.842 -253.345 -586.121 -308.159 -608.441C-302.97 -590.014 -298.347 -573.385 -293.5 -556.83C-293.158 -555.7 -291.657 -554.645 -290.438 -554.11C-248.439 -536.263 -205.875 -538.581 -163.178 -551.346C-161.141 -551.97 -158.331 -553.531 -157.915 -555.18C-153.604 -572.166 -149.679 -589.286 -145.249 -607.981ZM8.1021 -535.832C-20.68 -540.498 -47.2172 -548.003 -72.1042 -560.679C-96.783 -573.311 -118.132 -590.267 -138.246 -610.789L-150.824 -557.305C-147.657 -554.333 -144.669 -551.792 -142.023 -549.087C-113.627 -520.421 -79.3889 -502.528 -39.204 -495.752C-35.6359 -495.172 -30.3137 -495.113 -28.3215 -497.134C-16.1159 -509.305 -4.59412 -522.174 8.1021 -535.832V-535.832ZM-80.6972 63.2074C-65.2861 43.907 -46.2458 27.8075 -24.6494 15.8163C-1.24909 2.66453 22.7459 -9.44701 46.4584 -22.0787C53.1038 -25.5858 59.675 -29.2713 67.0192 -33.2392C55.1109 -43.8795 44.2878 -53.7917 33.1377 -63.3323C31.77 -64.5657 28.1425 -64.9075 26.4626 -64.0605C1.26339 -50.9087 -24.025 -37.8163 -48.9418 -24.07C-66.3036 -14.6065 -81.5349 -1.67771 -93.6907 13.9142C-95.2815 16.0244 -96.5005 19.7693 -95.6977 22.043C-91.2674 35.3286 -86.183 48.3912 -80.6823 63.2074H-80.6972ZM-455.771 0.851511C-452.545 1.41622 -450.806 1.78772 -449.081 2.02549C-431.256 4.38836 -413.371 6.23113 -395.635 9.20329C-348.478 17.0944 -312.708 40.3218 -292.861 84.2503C-292.4 85.246 -291.419 86.1228 -290.14 87.7872C-286.736 73.9964 -283.391 61.2012 -280.507 48.3466C-279.927 46.0135 -280.507 43.1454 -281.31 40.842C-294.244 5.2652 -318.759 -18.423 -356.833 -26.5667C-376.68 -30.802 -397.047 -32.7042 -417.177 -35.4831C-419.08 -35.7506 -421.845 -35.3642 -422.945 -34.1754C-433.783 -22.9555 -444.339 -11.4681 -455.771 0.806954V0.851511ZM-597.808 -361.871C-579.805 -297.836 -559.675 -235.643 -579.061 -168.383C-562.559 -173.54 -547.737 -177.983 -533.078 -182.932C-531.473 -183.512 -529.912 -186.915 -529.912 -189.01C-529.852 -201.181 -529.332 -213.441 -530.833 -225.493C-535.903 -266.316 -541.671 -307.079 -547.395 -347.857C-547.692 -349.566 -549.759 -352.003 -551.379 -352.36C-566.246 -355.6 -581.262 -358.468 -597.808 -361.797V-361.871ZM-106.61 10.9123C-112.527 -5.03334 -117.968 -20.0576 -123.855 -34.9036C-124.584 -36.776 -127.721 -38.7079 -129.891 -38.9308C-141.74 -40.0305 -153.619 -41.9327 -165.319 -41.1748C-190.711 -39.5699 -213.785 -29.1673 -237.72 -21.7963C-254.044 -16.7437 -262.756 -8.30275 -264.495 8.50482C-265.595 19.2938 -269.342 29.8449 -272.166 41.6147C-255.382 35.388 -240.203 29.3694 -224.741 24.0492C-193.179 13.2157 -161.23 3.92769 -127.081 7.67261C-120.6 8.35621 -114.222 9.67886 -106.61 10.9123V10.9123ZM-99.7267 11.7594C-66.9157 -29.8509 -17.4687 -44.6969 25.2138 -70.6438C12.696 -81.834 0.876828 -92.5338 -11.1653 -103.011C-12.4438 -104.125 -15.7293 -104.556 -17.2309 -103.754C-40.4379 -91.3598 -64.0018 -79.4711 -86.3317 -65.7546C-96.8425 -59.2901 -105.212 -49.3186 -114.028 -40.4913C-115.768 -38.7674 -116.615 -34.6361 -115.857 -32.3029C-111.055 -18.0663 -105.629 -4.03768 -99.7267 11.7594V11.7594ZM-276.552 32.9806C-272.806 17.5848 -269.223 3.11035 -265.818 -11.4235C-265.476 -12.8353 -265.982 -14.5294 -266.502 -15.9858C-276.017 -43.6566 -293.277 -64.4171 -323.041 -71.9515C-340.122 -76.2463 -357.829 -78.1485 -375.372 -80.6303C-377.795 -80.9424 -381.259 -78.9064 -383.221 -76.9448C-390.268 -69.9305 -396.928 -62.5149 -403.648 -55.2034C-407.573 -50.9384 -411.379 -46.5544 -415.943 -41.4721C-401.076 -39.5401 -387.741 -37.8906 -374.465 -36.0479C-331.024 -29.9698 -297.158 -10.621 -278.931 30.3205C-278.633 30.9001 -277.935 31.3607 -276.552 32.9806V32.9806ZM-414.323 -474.516L-416.686 -473.297C-421.696 -423.796 -440.8 -380.506 -477.551 -343.845C-461.748 -340.709 -447.52 -337.722 -433.293 -335.196C-431.568 -334.884 -428.847 -336.459 -427.361 -337.901C-399.842 -365.467 -385.065 -398.741 -381.839 -437.022C-381.675 -439.103 -382.3 -441.867 -383.697 -443.308C-393.717 -453.874 -404.05 -464.173 -414.323 -474.516V-474.516ZM57.6531 -375.617C16.7992 -404.878 -7.65671 -444.244 -28.7081 -487.222C-38.9364 -476.299 -48.3322 -466.491 -57.2523 -456.341C-58.3821 -455.018 -58.0997 -451.496 -57.1928 -449.594C-53.2383 -441.406 -48.9715 -433.337 -44.5263 -425.371C-31.5476 -402.218 -15.6699 -381.368 6.13969 -365.334C8.36971 -363.669 12.012 -361.841 14.3313 -362.48C28.2912 -366.299 42.0578 -370.773 57.6531 -375.617V-375.617ZM-374.078 -444.304C-361.382 -431.449 -349.147 -418.981 -336.688 -406.706C-335.529 -405.547 -332.793 -405.265 -330.979 -405.577C-312.916 -408.891 -295.671 -414.463 -280.046 -424.316C-265.179 -433.768 -265.179 -433.738 -269.892 -450.724L-272.077 -458.184C-275.08 -468.794 -278.128 -479.405 -281.191 -490.135C-313.273 -475.556 -347.021 -466.669 -374.078 -444.304V-444.304ZM56.5232 -369.108C44.5257 -365.408 31.3835 -361.559 18.4494 -357.145C16.3532 -356.417 14.4205 -353.281 13.8258 -350.948C5.63419 -316.754 9.55902 -283.079 18.7913 -249.702C19.1722 -248.669 19.7883 -247.74 20.5908 -246.987C21.3933 -246.233 22.3601 -245.677 23.4149 -245.362C36.9734 -242.375 50.6211 -239.804 64.358 -237.055C60.9089 -259.376 56.0028 -280.909 54.7243 -302.636C53.416 -324.347 55.765 -346.327 56.5232 -369.108V-369.108ZM65.1757 -230.814C56.2259 -232.597 49.1493 -232.998 42.9647 -235.51C23.5933 -243.371 10.2132 -235.198 -1.39777 -221.005C-4.56439 -217.127 -8.48924 -213.679 -10.749 -209.414C-21.7975 -187.955 -32.6211 -166.381 -43.218 -144.695C-43.8573 -143.477 -43.56 -140.906 -42.6382 -140.059C-32.8856 -131.068 -22.9249 -122.241 -11.9978 -112.492C6.28834 -156.718 23.6528 -200.2 65.1757 -230.814V-230.814ZM-476.362 -337.618C-463.725 -293.571 -450.687 -250.98 -462.982 -204.792C-455.548 -207.007 -449.542 -208.745 -443.595 -210.647C-416.077 -219.296 -415.334 -220.574 -414.798 -249.583C-414.397 -275.678 -422.41 -300.154 -429.457 -324.823C-429.858 -326.324 -431.3 -328.434 -432.624 -328.717C-446.702 -331.763 -460.841 -334.497 -476.362 -337.618V-337.618ZM-379.609 -89.8291C-369.797 -100.321 -360.981 -109.579 -352.521 -119.12C-351.89 -119.986 -351.46 -120.984 -351.265 -122.038C-351.069 -123.092 -351.113 -124.177 -351.391 -125.213C-364.43 -158.352 -383.117 -187.747 -412.093 -209.979C-413.758 -211.272 -416.597 -212.773 -418.322 -212.252C-431.598 -208.433 -444.799 -204.168 -459.518 -199.561C-421.265 -170.33 -397.27 -133.015 -379.609 -89.8291V-89.8291ZM-277.905 -501.473C-276.344 -501.845 -275.125 -502.424 -273.98 -502.32C-272.479 -502.202 -270.918 -501.681 -269.476 -501.087C-238.33 -488.336 -206.886 -490.357 -175.324 -499.319C-173.287 -499.898 -170.478 -501.488 -170.061 -503.123C-166.434 -516.81 -163.327 -530.63 -159.669 -546.145C-203.868 -533.513 -246.685 -529.932 -291.047 -548.389C-286.275 -531.165 -282.172 -516.557 -277.905 -501.473ZM-152.192 -550.871L-162.821 -505.634C-159.015 -502.573 -155.878 -500.493 -153.232 -497.877C-131.081 -475.824 -104.648 -461.542 -73.5017 -455.955C-71.0933 -455.524 -67.4063 -455.093 -66.1277 -456.386C-55.9291 -466.64 -46.1468 -477.325 -35.1454 -489.109C-81.7527 -496.599 -119.678 -516.676 -152.192 -550.871V-550.871ZM4.42998 -359.122C-27.8904 -383.345 -47.2618 -414.835 -63.868 -449.49C-76.7277 -435.655 -88.4576 -423.083 -99.355 -411.343L-89.3348 -392.722C-79.9836 -375.454 -69.0714 -359.285 -53.2085 -346.966C-50.8893 -345.182 -46.786 -343.622 -44.2587 -344.335C-28.5594 -348.689 -13.0533 -353.757 4.42998 -359.122V-359.122ZM-373.261 -434.986C-374.078 -434.555 -374.881 -434.065 -375.684 -433.604C-380.307 -395.456 -395.234 -361.886 -423.451 -333.115C-405.507 -329.534 -389.242 -326.131 -372.859 -323.307C-370.778 -322.965 -367.596 -325.09 -365.872 -326.933C-348.805 -344.989 -339.156 -366.522 -335.99 -390.835C-335.648 -393.42 -335.99 -397.002 -337.551 -398.726C-349.206 -411.031 -361.263 -422.964 -373.201 -434.986H-373.261ZM-127.275 -44.7414C-132.062 -57.8338 -136.165 -69.6035 -140.833 -81.1355C-141.71 -83.2755 -144.862 -85.7275 -147.107 -85.8464C-157.618 -86.5449 -168.679 -88.6402 -178.61 -86.2477C-200.137 -81.1207 -221.025 -73.5565 -242.121 -66.8692C-243.682 -66.349 -245.704 -64.8778 -246.105 -63.466C-249.732 -49.5563 -253.078 -35.5575 -256.839 -20.4143C-214.454 -35.8547 -174.239 -54.1929 -127.275 -44.7414ZM8.05747 -354.01C-7.15124 -349.343 -20.7692 -344.722 -34.6845 -341.096C-41.1664 -339.431 -43.5748 -335.969 -44.6749 -330.054C-48.7633 -307.213 -46.8455 -284.699 -41.107 -262.393C-40.6461 -260.491 -38.7282 -257.801 -37.0483 -257.459C-20.903 -253.922 -4.69818 -250.831 12.7257 -247.339C3.90968 -282.901 -0.535527 -317.526 8.05747 -354.01V-354.01ZM12.7851 -241.261C-0.951785 -244.04 -13.2912 -245.674 -25.1103 -249.196C-35.859 -252.421 -43.4559 -249.167 -50.4284 -241.781C-51.8854 -240.28 -53.5058 -238.898 -54.8736 -237.337C-69.5917 -221.392 -77.4414 -201.805 -85.2762 -182.234C-85.7965 -180.941 -85.3951 -178.399 -84.4287 -177.523C-73.1597 -167.135 -61.7569 -156.955 -49.4621 -146.003C-34.625 -181.936 -20.5462 -216.77 12.7851 -241.261V-241.261ZM-412.553 -220.396C-397.151 -225.181 -383.652 -229.684 -369.975 -233.489C-364.608 -234.989 -362.363 -237.872 -361.263 -242.955C-357.636 -260.193 -361.724 -276.733 -364.326 -293.675C-367.106 -311.627 -375.223 -321.152 -394.356 -321.494C-401.344 -321.673 -408.316 -324.154 -415.334 -325.477C-417.727 -325.938 -420.15 -326.279 -423.495 -326.829C-413.341 -291.55 -403.128 -257.712 -412.583 -220.396H-412.553ZM-18.8514 -109.98C-29.154 -119.239 -38.981 -128.244 -49.0755 -136.864C-50.2054 -137.874 -53.5802 -137.473 -55.2304 -136.596C-69.3092 -129.463 -83.9233 -122.984 -97.0655 -114.424C-109.227 -106.503 -119.916 -96.353 -131.036 -86.9461C-132.597 -85.6235 -134.203 -82.5622 -133.682 -80.9572C-129.594 -68.6376 -124.911 -56.4963 -119.975 -43.0027C-93.215 -76.8705 -53.6396 -89.1158 -18.8514 -109.98ZM-345.266 -126.684C-334.131 -138.677 -323.918 -149.451 -313.942 -160.552C-312.782 -161.919 -312.441 -164.965 -313.095 -166.689C-322.119 -190.11 -335.053 -210.974 -355.064 -227.069C-356.967 -228.57 -360.014 -230.412 -361.813 -229.892C-377.156 -225.449 -392.335 -220.515 -409 -215.269C-378.657 -191.388 -359.509 -161.637 -345.266 -126.684V-126.684ZM-263.692 -25.4224C-263.107 -25.6927 -262.527 -25.9751 -261.953 -26.2695C-260.05 -33.7593 -258.088 -41.2788 -256.363 -48.739C-255.263 -53.4498 -252.81 -58.7998 -254.029 -63.0054C-260.407 -84.9251 -272.345 -103.293 -295.715 -110.322C-310.017 -114.647 -325.196 -116.103 -340.018 -118.629C-341.624 -118.927 -344.166 -118.629 -345.147 -117.634C-354.662 -107.766 -363.954 -97.6756 -374.628 -86.2328C-326.861 -82.4582 -283.406 -74.3888 -263.692 -25.4224V-25.4224ZM-171.845 -494.073C-207.228 -484.175 -241.125 -483.091 -276.656 -497.075L-261.596 -443.68C-257.106 -443.472 -253.524 -444.14 -250.639 -443.056C-230.272 -435.298 -209.741 -435.878 -189.031 -441.094C-186.772 -441.674 -183.888 -444.126 -183.308 -446.221C-179.338 -461.498 -175.949 -476.894 -171.905 -494.073H-171.845ZM-71.9406 -449.624C-106.55 -456.118 -134.916 -470.786 -158.302 -494.504C-162.048 -498.338 -164.754 -497.446 -165.973 -492.319C-169.6 -476.983 -173.228 -461.617 -176.603 -447.439C-172.277 -444.586 -168.322 -442.714 -165.393 -439.95C-150.794 -426.07 -133.89 -416.336 -114.058 -411.892C-111.561 -411.343 -107.695 -411.551 -106.283 -413.052C-94.9395 -424.598 -84.0422 -436.591 -71.9406 -449.624V-449.624ZM-379.178 -448.168C-354.826 -467.665 -325.642 -478.038 -296.964 -489.451C-293.278 -490.865 -289.742 -492.642 -286.409 -494.756C-285.026 -495.618 -283.614 -498.159 -283.926 -499.482C-287.39 -512.693 -291.255 -525.786 -295.359 -540.26C-328.467 -507.239 -369.261 -491.413 -412.583 -482.362C-401.507 -471.009 -390.595 -459.878 -379.178 -448.168V-448.168ZM-56.1075 -143.283C-68.0455 -153.953 -79.0172 -164.044 -90.3754 -173.674C-91.7135 -174.833 -95.2815 -174.714 -97.1398 -173.822C-105.911 -169.647 -114.965 -165.664 -122.978 -160.24C-132.671 -153.731 -141.562 -145.973 -150.512 -138.469C-152.058 -137.176 -153.5 -134.114 -152.979 -132.569C-148.133 -118.451 -142.87 -104.482 -137.236 -89.205C-115.872 -116.371 -84.622 -126.506 -56.1075 -143.283V-143.283ZM-244.083 -72.8135C-211.317 -84.7021 -180.334 -97.958 -144.803 -91.8502C-149.887 -105.567 -154.972 -118.094 -159.119 -130.89C-161.067 -136.938 -164.516 -138.721 -170.582 -139.018C-191.38 -140.059 -209.919 -132.331 -228.622 -125.228C-229.945 -124.722 -231.506 -123.325 -231.788 -122.122C-235.877 -106.176 -239.801 -90.1858 -244.083 -72.8135V-72.8135ZM-339.26 -124.38C-300.324 -121.497 -266.577 -113.012 -250.654 -72.0705C-246.492 -89.0267 -242.983 -103.248 -239.519 -117.485C-239.341 -118.213 -239.058 -119.179 -239.4 -119.759C-244.351 -128.111 -248.394 -137.384 -254.743 -144.651C-267.141 -158.798 -285.205 -159.957 -302.628 -161.607C-303.892 -161.755 -305.632 -160.477 -306.613 -159.422C-316.99 -148.425 -327.263 -137.294 -339.26 -124.38V-124.38ZM-128.42 -380.016L-121.715 -370.669C-112.943 -358.438 -104.41 -346.044 -95.3855 -334.022C-93.9583 -332.149 -90.1524 -330.247 -88.1603 -330.827C-77.5305 -333.531 -67.1684 -337.053 -56.8806 -340.278C-65.5331 -350.146 -74.3045 -358.795 -81.3811 -368.648C-88.5468 -378.515 -94.0178 -389.527 -100.143 -400.138C-102.522 -404.343 -104.989 -405.324 -108.558 -401.401C-115.262 -394.119 -122.057 -386.852 -128.42 -380.016V-380.016ZM-46.0725 -253.03C-56.9252 -255.215 -65.6371 -257.296 -74.468 -258.499C-77.956 -258.899 -81.4768 -258.108 -84.4585 -256.255C-101.303 -244.5 -108.275 -226.385 -115.381 -208.448C-115.812 -207.244 -115.039 -204.822 -113.924 -203.856C-106.892 -197.258 -99.6672 -190.912 -91.7135 -183.824C-80.831 -209.548 -70.7216 -234.752 -46.0725 -253.03V-253.03ZM-49.6107 -336.221C-60.1513 -332.967 -69.3241 -330.574 -78.0955 -327.201C-79.613 -326.524 -80.9754 -325.543 -82.0981 -324.319C-83.2207 -323.094 -84.0798 -321.652 -84.622 -320.082C-88.7698 -303.676 -87.4913 -287.21 -83.4029 -270.923C-82.942 -269.169 -81.5446 -266.539 -80.1768 -266.227C-69.5471 -263.745 -58.8282 -261.754 -46.9942 -259.331C-53.1788 -285.234 -55.7061 -309.769 -49.6107 -336.221ZM-327.263 -391.028L-329.983 -389.289C-333.73 -363.625 -344.404 -341.021 -362.75 -321.078C-351.154 -318.715 -341.119 -316.382 -330.965 -314.896C-328.541 -314.554 -324.914 -316.367 -323.174 -318.329C-312.438 -330.119 -305.591 -344.927 -303.565 -360.742C-303.268 -362.822 -303.684 -365.616 -304.948 -367.028C-312.143 -375.231 -319.755 -383.077 -327.263 -391.028V-391.028ZM-364.296 -315.312C-357.264 -289.588 -349.593 -264.934 -356.104 -238.125C-346.233 -241.172 -338.056 -244.025 -329.686 -246.165C-324.141 -247.577 -322.134 -250.727 -321.375 -255.913C-318.833 -273.152 -323.799 -289.246 -328.586 -305.385C-328.987 -306.886 -331.306 -308.61 -332.972 -308.996C-342.784 -311.166 -352.581 -313.009 -364.296 -315.312V-315.312ZM-306.955 -167.997C-299.402 -176.126 -292.876 -183.006 -286.706 -189.976C-285.606 -191.21 -284.907 -193.899 -285.487 -195.356C-292.237 -212.743 -301.469 -228.599 -316.41 -240.577C-317.971 -241.84 -320.855 -242.717 -322.699 -242.182C-332.273 -239.522 -341.728 -236.357 -352.581 -232.954C-330.95 -215.314 -317.109 -193.632 -306.895 -167.997H-306.955ZM-185.939 -434.629C-197.743 -433.47 -208.537 -431.286 -219.152 -431.746C-230.108 -432.237 -240.902 -435.491 -251.858 -437.23C-256.705 -437.988 -258.905 -435.046 -257.775 -430.662C-255.085 -420.452 -252.037 -410.302 -249.777 -402.441C-244.009 -402.129 -239.683 -402.649 -235.936 -401.49C-223.714 -397.745 -210.719 -397.289 -198.264 -400.167C-196.227 -400.628 -193.536 -402.827 -193.001 -404.73C-190.369 -414.404 -188.288 -424.301 -185.939 -434.6V-434.629ZM-328.184 -399.84C-319.71 -391.102 -311.861 -382.914 -303.788 -374.844C-303.089 -374.22 -301.305 -374.22 -300.146 -374.443C-285.279 -377.148 -270.843 -381.472 -258.489 -390.478C-256.586 -391.83 -254.624 -395.233 -255.025 -397.165C-257.448 -407.39 -260.57 -417.465 -263.796 -428.789C-282.96 -412.903 -304.814 -405.012 -328.184 -399.84ZM-186.058 -406.26C-181.212 -403.407 -177.614 -401.208 -174.001 -399.082C-163.669 -393.034 -153.44 -386.852 -142.93 -381.041C-141.22 -380.09 -137.473 -379.778 -136.418 -380.804C-128.583 -388.531 -121.15 -396.66 -113.166 -405.175C-143.197 -414.805 -147.598 -417.168 -169.987 -436.279C-174.313 -439.979 -177.941 -439.92 -179.457 -434.347C-182.222 -424.42 -184.2 -414.3 -186.058 -406.26V-406.26ZM-97.7791 -180.539C-105.673 -187.613 -112.349 -193.78 -119.351 -199.68C-120.659 -200.81 -123.499 -201.954 -124.629 -201.359C-138.648 -193.855 -154.243 -188.46 -164.263 -175.145C-165.423 -173.585 -167.281 -171.296 -166.82 -169.973C-163.802 -160.775 -160.294 -151.739 -156.429 -141.218C-140.521 -160.938 -118.429 -168.695 -97.7791 -180.539V-180.539ZM-299.462 -167.076C-270.724 -165.054 -248.35 -156.376 -237.274 -129.641C-234.048 -139.509 -231.684 -148.916 -229.424 -158.367C-229.187 -159.318 -229.083 -160.552 -229.543 -161.31C-232.309 -165.753 -235.371 -170.018 -238.077 -174.461C-246.269 -187.836 -259.708 -190.808 -274.129 -191.819C-275.393 -191.908 -277.191 -190.897 -278.158 -189.857C-284.803 -182.932 -291.315 -175.843 -299.462 -167.076V-167.076ZM-164.323 -144.472C-167.579 -153.24 -170.805 -160.849 -173.154 -168.695C-174.834 -174.105 -177.881 -176.943 -183.486 -175.665C-195.023 -173.02 -206.44 -169.988 -217.858 -166.957C-219.181 -166.6 -220.921 -165.233 -221.203 -164.059C-224.028 -153.701 -226.57 -143.269 -229.573 -131.335C-207.719 -139.509 -187.634 -146.895 -164.323 -144.472V-144.472ZM-100.232 -326.785C-109.583 -341.14 -118.637 -354.961 -127.587 -368.796C-129.995 -372.541 -133.281 -374.072 -136.641 -370.877C-143.777 -363.803 -150.378 -356.254 -156.072 -350.116C-152.727 -346.312 -150.155 -343.771 -148.118 -340.858C-143.494 -334.319 -139.347 -327.364 -134.441 -321.048C-133.132 -319.369 -129.297 -318.165 -127.186 -318.745C-117.775 -321.138 -108.543 -324.258 -100.232 -326.785V-326.785ZM-88.0711 -261.338C-99.1915 -263.611 -108.424 -265.603 -117.715 -267.237C-119.232 -267.535 -121.224 -266.583 -122.681 -265.632C-134.262 -257.964 -139.287 -245.972 -144.03 -233.801C-144.431 -232.76 -143.732 -230.68 -142.87 -229.818C-136.076 -223.487 -129.133 -217.35 -121.477 -210.425C-113.568 -229.654 -105.837 -247.517 -88.0711 -261.338ZM-91.6986 -268.248V-323.055C-101.927 -319.949 -111.65 -316.991 -121.283 -313.885C-122.265 -313.588 -123.484 -312.191 -123.484 -311.24C-123.662 -300.228 -123.885 -289.157 -123.484 -278.13C-123.424 -276.585 -120.228 -274.267 -118.176 -273.746C-109.241 -271.592 -100.113 -269.957 -91.6986 -268.248V-268.248ZM-313.11 -252.451C-282.142 -260.669 -278.44 -255.601 -286.468 -291.639C-286.87 -293.392 -287.212 -295.265 -288.074 -296.825C-288.832 -298.296 -290.036 -300.258 -291.419 -300.57C-301.231 -302.814 -311.147 -304.701 -320.216 -306.514C-317.718 -287.775 -315.414 -270.016 -313.11 -252.451ZM-277.801 -199.324C-271.572 -206.026 -264.703 -213.382 -256.571 -222.15C-263.202 -231.78 -269.728 -241.647 -276.656 -251.158C-277.979 -252.941 -281.324 -254.843 -283.064 -254.412C-292.579 -251.931 -301.87 -248.736 -309.765 -246.254C-299.031 -230.501 -288.594 -215.225 -277.801 -199.324ZM-195.305 -394.446C-211.168 -391.34 -225.485 -391.92 -239.668 -396.303C-241.11 -396.705 -246.298 -392.038 -245.956 -390.508C-243.711 -380.105 -240.47 -369.896 -237.125 -358.156C-232.918 -364.145 -229.216 -364.813 -223.849 -362.911C-219.062 -361.247 -213.458 -361.128 -208.269 -361.306C-206.128 -361.425 -202.917 -363.729 -202.337 -365.66C-199.691 -374.547 -197.847 -383.687 -195.305 -394.446ZM-195.365 -366.597C-190.102 -363.937 -186.177 -362.183 -182.549 -360.058C-178.045 -357.368 -173.897 -354.114 -169.229 -351.721C-167.638 -350.874 -164.174 -350.963 -163.074 -352.063C-156.012 -358.988 -149.456 -366.3 -142.454 -373.745C-149.857 -377.178 -156.533 -379.63 -162.494 -383.271C-168.53 -386.897 -173.733 -391.86 -179.517 -395.932C-183.962 -399.023 -187.827 -397.953 -189.21 -392.737C-191.663 -383.479 -193.581 -374.116 -195.365 -366.597V-366.597ZM-317.034 -312.102C-312.827 -311.24 -307.445 -310.081 -302.168 -309.011C-283.584 -305.236 -280.596 -306.901 -274.188 -324.778C-273.445 -326.963 -272.627 -329.222 -272.404 -331.496C-272.226 -333.145 -272.464 -335.389 -273.445 -336.474C-280.715 -344.231 -288.148 -351.751 -294.898 -358.646C-302.51 -342.597 -309.616 -327.78 -317.109 -312.102H-317.034ZM-171.102 -180.733C-156.547 -189.991 -142.766 -198.729 -128.42 -207.898C-135.214 -213.947 -141.919 -220.054 -148.891 -225.82C-150.051 -226.801 -153.158 -226.979 -154.377 -226.162C-162.45 -220.901 -170.225 -215.343 -177.956 -209.681C-179.115 -208.834 -180.334 -206.561 -179.992 -205.416C-177.168 -196.946 -173.971 -188.535 -171.102 -180.733V-180.733ZM-295.819 -367.667C-288.579 -360.429 -281.116 -352.895 -273.504 -345.494C-272.746 -344.811 -271.081 -344.335 -270.1 -344.632C-262.31 -346.995 -254.52 -349.328 -246.967 -352.33C-245.406 -352.955 -243.682 -356.477 -244.083 -358.215C-246.328 -367.696 -249.242 -377.044 -251.695 -385.544C-266.562 -379.511 -281.057 -373.626 -295.819 -367.667ZM-228.607 -169.84C-227.908 -169.929 -227.284 -170.018 -226.644 -170.137L-219.315 -199.74C-222.259 -202.311 -224.281 -203.529 -225.5 -205.223C-227.462 -207.913 -228.607 -211.301 -230.748 -213.813C-235.594 -219.549 -246.848 -223.012 -250.357 -219.608C-257.225 -213.04 -263.514 -205.862 -271.126 -197.689C-250.699 -195.668 -236.055 -187.821 -228.607 -169.84ZM-178.937 -183.333C-181.197 -189.56 -183.382 -196.426 -186.311 -202.964C-187.649 -205.788 -190.875 -210.32 -192.54 -210.038C-199.022 -208.938 -208.462 -207.987 -210.826 -203.752C-215.554 -195.326 -216.371 -184.775 -218.899 -174.625C-205.013 -177.642 -192.317 -180.376 -178.937 -183.333V-183.333ZM-139.183 -315.059C-144.446 -323.337 -148.936 -330.886 -153.901 -338.213C-156.919 -342.775 -160.993 -344.528 -165.542 -339.936C-169.868 -335.493 -173.956 -330.767 -178.06 -326.279C-174.893 -324.199 -171.444 -322.936 -169.705 -320.513C-161.052 -308.342 -161.231 -308.194 -146.616 -312.637C-144.149 -313.425 -141.681 -314.257 -139.183 -315.059V-315.059ZM-151.359 -237.56C-144.268 -248.721 -137.682 -259.123 -130.709 -270.165C-137.414 -271.086 -146.185 -275.01 -151.359 -272.305C-157.722 -269.05 -162.048 -260.654 -165.215 -253.625C-166.137 -251.515 -160.368 -246.358 -157.38 -242.836C-155.507 -240.711 -153.098 -239.032 -151.359 -237.56V-237.56ZM-272.627 -257.949L-252.096 -227.217C-246.967 -232.745 -242.121 -238.036 -237.334 -243.148C-240.961 -249.181 -244.024 -254.888 -247.889 -260.089C-249.212 -261.932 -252.736 -263.597 -254.876 -263.195C-260.912 -262.051 -266.8 -259.762 -272.627 -257.949V-257.949ZM-275.749 -263.537C-273.267 -264.236 -270.487 -265.008 -267.781 -265.87C-253.063 -270.462 -252.26 -271.666 -256.244 -286.14C-257.121 -289.246 -259.069 -293.496 -261.611 -294.448C-267.617 -296.692 -274.248 -297.301 -280.774 -298.534C-279.035 -286.66 -277.474 -275.545 -275.749 -263.537V-263.537ZM-131.348 -276.481V-310.705L-153.916 -303.899C-154.035 -301.135 -154.035 -299.114 -154.258 -297.093C-155.908 -281.34 -155.968 -281.34 -140.12 -278.056C-137.295 -277.506 -134.455 -277.031 -131.348 -276.481ZM-205.013 -354.024C-212.803 -355.154 -219.612 -356.907 -226.302 -356.685C-229.306 -356.625 -234.836 -352.301 -234.613 -350.428C-233.751 -343.28 -230.985 -336.385 -229.603 -331.481C-223.478 -332.105 -219.047 -332.313 -214.766 -333.19C-212.744 -333.621 -209.785 -334.943 -209.22 -336.533C-207.377 -342.106 -206.396 -347.961 -205.013 -354.024V-354.024ZM-157.187 -232.835C-173.733 -248.171 -171.325 -252.986 -190.756 -234.023C-188.452 -228.049 -186.043 -221.942 -183.665 -215.76L-157.187 -232.835V-232.835ZM-170.225 -344.083C-176.528 -348.541 -181.866 -353.222 -188.05 -356.328C-190.488 -357.546 -196.985 -356.179 -197.684 -354.485C-200.226 -347.991 -201.192 -340.902 -202.189 -336.385C-195.439 -333.502 -190.31 -331.362 -184.423 -328.939L-170.225 -344.083ZM-241.942 -228.911C-233.513 -222.477 -225.842 -216.666 -217.189 -210.053C-215.405 -216.889 -213.443 -224.141 -212.12 -229.342C-215.583 -232.627 -218.289 -234.41 -219.91 -236.892C-224.355 -243.757 -227.462 -244.277 -233.126 -238.348C-236.337 -234.93 -239.578 -231.482 -241.942 -228.911V-228.911ZM-264.837 -329.965C-269.684 -320.097 -273.43 -312.548 -277.533 -304.256C-270.724 -302.903 -264.094 -301.031 -257.448 -300.674C-255.144 -300.496 -251.799 -303.78 -250.535 -306.292C-249.376 -308.461 -249.435 -312.489 -250.818 -314.391C-254.802 -319.77 -259.708 -324.437 -264.837 -329.965V-329.965ZM-240.961 -347.59C-249.45 -344.484 -257.062 -341.69 -264.733 -338.822C-265.357 -337.811 -265.997 -336.771 -266.695 -335.731C-262.994 -333.19 -259.024 -331.065 -255.798 -328.122C-247.205 -320.186 -247.384 -320.053 -235.029 -326.16L-240.961 -347.59V-347.59ZM-191.693 -217.498C-193.937 -223.576 -195.84 -228.897 -197.981 -234.142C-198.383 -235.108 -199.973 -236.565 -200.628 -236.357C-201.906 -235.985 -203.586 -234.871 -203.928 -233.726C-205.831 -227.381 -207.362 -220.991 -209.235 -213.649L-191.693 -217.498ZM-227.522 -294.685C-220.594 -297.791 -214.602 -302.175 -208.076 -302.992C-201.43 -303.765 -194.354 -301.001 -187.47 -299.827C-202.248 -313.113 -224.281 -309.843 -227.522 -294.685ZM-169.764 -305.89L-168.054 -308.521C-172.752 -312.221 -177.227 -316.575 -182.579 -319.042C-184.096 -319.741 -188.303 -314.807 -191.871 -311.954C-187.902 -310.2 -184.334 -309.784 -183.456 -308.09C-179.636 -300.555 -174.67 -304.077 -169.764 -305.89V-305.89ZM-161.29 -275.024C-169.824 -278.249 -173.392 -276.719 -177.896 -269.199C-181.985 -262.363 -176.826 -260.283 -172.693 -257.132C-168.723 -263.314 -165.036 -269.169 -161.29 -275.024V-275.024ZM-225.262 -256.939C-227.403 -260.431 -228.726 -265.038 -231.773 -267.014C-234.658 -268.798 -239.385 -267.817 -245.213 -268.188C-241.764 -263.076 -239.787 -260.416 -238.062 -257.608C-232.309 -248.082 -232.13 -248.052 -225.262 -256.939V-256.939ZM-247.473 -272.602C-242.344 -274.296 -236.233 -273.449 -237.036 -281.519C-237.78 -289.558 -241.942 -292.56 -250.134 -291.743C-249.272 -285.576 -248.409 -279.572 -247.473 -272.602V-272.602ZM-172.99 -298.148C-170.76 -283.317 -170.76 -283.317 -160.591 -283.792C-161.349 -289.217 -162.048 -294.581 -162.747 -299.931C-166.196 -299.322 -169.645 -298.713 -172.99 -298.148V-298.148ZM-210.603 -324.318C-211.644 -325.611 -212.684 -326.904 -213.77 -328.152C-217.635 -326.458 -223.002 -325.7 -224.905 -322.787C-226.57 -320.157 -224.504 -315.178 -224.043 -311.225C-223.002 -310.988 -221.902 -310.765 -220.876 -310.557C-217.412 -315.149 -214.008 -319.77 -210.603 -324.318V-324.318ZM-197.431 -251.604C-195.736 -248.542 -194.294 -245.764 -192.614 -242.777L-179.294 -251.99C-185.478 -263.255 -191.053 -256.196 -197.431 -251.604V-251.604ZM-207.778 -316.65L-204.998 -313.93C-199.988 -316.471 -194.904 -318.998 -189.894 -321.568C-190.132 -322.832 -190.414 -324.08 -190.637 -325.343C-194.398 -325.863 -199.007 -327.929 -201.594 -326.502C-204.612 -324.838 -205.831 -320.082 -207.778 -316.65V-316.65ZM-206.753 -249.3C-210.99 -251.084 -214.186 -252.466 -218.111 -254.13L-223.136 -248.543C-218.869 -245.481 -215.167 -242.895 -211.54 -240.295C-209.8 -243.52 -208.12 -246.729 -206.753 -249.3V-249.3ZM-230.51 -306.098L-232.695 -319.592C-236.159 -318.091 -238.582 -317.081 -242.091 -315.58C-238.181 -312.384 -235.475 -310.141 -230.51 -306.098ZM-235.074 -296.127L-234.033 -298.549C-236.679 -301.239 -239.341 -303.944 -242.567 -307.287C-244.232 -303.661 -245.332 -301.209 -246.774 -298.148L-235.074 -296.127" fill="white"/>
<rect opacity="0.2" x="-29" y="-29" width="108" height="108" rx="54" fill="#FF9429"/>
<rect width="50" height="50" rx="25" fill="#FF9429"/>
<path fill-rule="evenodd" clip-rule="evenodd" d="M29.5 13C31.459 13 33.127 14.2525 33.745 16H20.5C18.5109 16 16.6032 16.7902 15.1967 18.1967C13.7902 19.6032 13 21.5109 13 23.5V30.745C12.1224 30.4345 11.3626 29.8595 10.8254 29.0993C10.2881 28.339 9.99973 27.4309 10 26.5V17.5C10 16.3065 10.4741 15.1619 11.318 14.318C12.1619 13.4741 13.3065 13 14.5 13H29.5ZM35.5 19H20.5C19.3065 19 18.1619 19.4741 17.318 20.318C16.4741 21.1619 16 22.3065 16 23.5V32.5C16 33.6935 16.4741 34.8381 17.318 35.682C18.1619 36.5259 19.3065 37 20.5 37H35.5C36.6935 37 37.8381 36.5259 38.682 35.682C39.5259 34.8381 40 33.6935 40 32.5V23.5C40 22.3065 39.5259 21.1619 38.682 20.318C37.8381 19.4741 36.6935 19 35.5 19ZM31 28C31 28.7956 30.6839 29.5587 30.1213 30.1213C29.5587 30.6839 28.7956 31 28 31C27.2044 31 26.4413 30.6839 25.8787 30.1213C25.3161 29.5587 25 28.7956 25 28C25 27.2044 25.3161 26.4413 25.8787 25.8787C26.4413 25.3161 27.2044 25 28 25C28.7956 25 29.5587 25.3161 30.1213 25.8787C30.6839 26.4413 31 27.2044 31 28V28Z" fill="white"/>
</g>
<defs>
<clipPath id="clip0_0_1">
<rect width="1920" height="10131" fill="white" transform="translate(-1157 -1660)"/>
</clipPath>
</defs>
</svg>
