<svg width="50" height="50" viewBox="0 0 50 50" fill="none" xmlns="http://www.w3.org/2000/svg">
<rect width="50" height="50" fill="#E5E5E5"/>
<g clip-path="url(#clip0_0_1)">
<rect width="1920" height="10131" transform="translate(-565 -1331)" fill="white"/>
<rect x="-565" y="-406" width="1920" height="856" fill="#101932"/>
<rect opacity="0.05" x="-80" y="-436" width="950" height="950" rx="475" fill="#143D85"/>
<rect opacity="0.1" x="20" y="-336" width="750" height="750" rx="375" fill="#143D85"/>
<path opacity="0.03" fill-rule="evenodd" clip-rule="evenodd" d="M721.028 -328.036C697.807 -302.892 674.481 -277.807 650.902 -252.32C682.033 -227.295 700.26 -193.264 721.95 -161.729C738.378 -137.907 756.382 -115.14 773.464 -91.7495C777.061 -86.8751 780.748 -86.5928 786.294 -88.3761C807.404 -95.2418 828.634 -101.647 849.879 -108.037C851.975 -108.676 854.517 -107.859 856.822 -107.695L857 -104.872C854.651 -104.01 852.272 -103.029 849.909 -102.286C828.218 -95.5093 806.587 -88.5247 784.718 -82.1791C778.295 -80.3067 775.485 -77.3642 774.088 -70.7809C762.447 -14.3841 768.453 41.0615 781.09 96.5666C784.718 112.587 790.441 122.112 808.653 123.093C821.201 123.717 833.54 127.774 845.939 130.316C846.177 131.163 846.4 132.01 846.578 132.886C844.542 133.585 842.312 135.071 840.453 134.729C825.089 131.967 809.774 128.94 794.515 125.649C788.94 124.445 784.554 125.233 779.827 128.592C747.447 151.656 724.745 182.299 707.44 216.909C695.889 239.944 686.3 263.87 675.819 287.364C674.362 290.664 672.652 293.859 670.734 297.871C693.941 318.736 717.624 340.016 741.351 361.297C738.616 367.539 735.984 364.76 733.041 362.144C715.037 346.02 696.974 330 679.03 313.876C663.955 300.383 664.014 300.353 645.817 309.953C621.109 323.016 596.192 335.647 571.796 349.2C551.057 360.658 532.979 375.296 518.082 393.694C514.975 397.557 514.217 400.693 516.045 405.567C525.679 430.831 534.926 456.228 544.262 481.565C544.441 482.056 544.783 482.517 544.842 483.052C545.08 486.217 545.244 489.457 545.422 492.652C543.356 490.2 540.516 488.089 539.475 485.31C529.702 460.108 520.276 434.773 511.199 409.312C509.073 403.338 506.204 401.525 499.9 401.599C457.976 401.971 417.404 410.858 376.788 419.863C354.354 424.842 331.891 430.117 309.471 435.036C304.907 436.002 302.96 438.053 301.919 442.467C296.894 463.703 291.527 484.805 286.279 505.952C285.58 508.672 284.837 511.376 284.198 513.947C277.389 514.482 278.95 510.856 279.812 507.453C285.521 484.285 291.468 461.176 296.597 437.83C297.816 432.48 297.474 425.897 295.437 420.8C276.913 373.958 239.999 350.478 190.775 343.271C172.95 340.67 155.006 339.006 137.18 336.583C132.393 335.885 129.45 337.222 126.283 340.67C105.181 363.605 83.9506 386.421 62.5937 409.119C60.9138 410.813 58.0891 411.482 55.8442 412.626C55.2644 411.749 54.6251 410.902 54.0453 410.026C78.3376 383.781 102.675 357.552 127.666 330.535C122.656 324.754 117.913 318.973 112.799 313.534C95.4939 295.642 77.7281 278.225 60.7651 259.976C34.2874 231.488 25.4565 216.152 6.54595 169.266C3.02253 170.276 -0.664436 171.242 -4.29193 172.386C-22.4591 178.034 -40.6412 183.785 -58.8084 189.253C-61.1128 189.982 -63.9374 189.194 -66.4797 189.075C-64.3983 187.381 -62.5548 184.959 -60.191 184.156C-40.5817 177.751 -20.9576 171.465 -1.16991 165.58C4.31594 163.975 6.85815 161.077 8.28536 155.727C18.4394 118.412 16.477 81.1262 8.06236 44.0188C2.47245 19.4539 -4.45546 -4.76919 -11.3239 -28.9923C-12.0673 -31.5186 -15.9921 -34.3273 -18.9654 -34.9812C-34.6202 -38.6221 -50.4979 -41.5497 -66.3013 -44.7299L-67 -47.2711C-64.9781 -47.925 -62.7927 -49.411 -60.9344 -49.1138C-49.4572 -47.1522 -37.9801 -45.25 -26.6664 -42.4265C-19.6196 -40.6432 -15.1893 -41.9658 -9.88184 -47.3306C18.6178 -76.3091 40.8288 -109.092 55.4279 -146.72C66.7415 -175.817 72.9113 -205.97 74.7547 -236.94C74.9183 -240.462 72.9559 -245.009 70.4285 -247.61C54.0453 -264.536 37.2012 -281.061 20.2829 -297.958C22.1858 -302.312 24.5496 -300.469 27.4338 -297.676C43.4156 -282.131 59.3973 -266.557 75.6021 -251.28C77.5646 -249.437 81.1475 -247.639 83.5559 -248.085C139.514 -258.547 191.622 -277.703 235.39 -314.751C242.601 -320.829 248.949 -327.903 255.817 -334.322C259.564 -337.785 260.025 -341.337 258.582 -346.166C250.971 -372.321 243.716 -398.61 236.312 -424.854C235.97 -426.073 235.331 -427.366 235.39 -428.599C235.465 -431.081 235.866 -433.533 236.148 -436C237.695 -434.157 240.133 -432.537 240.772 -430.427C246.079 -412.49 251.09 -394.479 256.233 -376.542C258.776 -367.551 261.66 -358.605 263.801 -349.555C265.005 -344.339 267.889 -341.857 272.736 -339.925C319.982 -321.171 368.27 -320.948 417.181 -331.529C430.1 -334.322 442.797 -338.246 455.597 -341.337C460.384 -342.466 462.48 -344.784 463.551 -349.525C469.438 -375.323 475.623 -401.047 481.837 -426.771C482.417 -428.911 484.275 -430.754 485.524 -432.716C486.446 -432.315 487.323 -431.884 488.259 -431.453C487.962 -429.283 487.798 -427.069 487.338 -424.944C481.614 -400.438 475.756 -375.992 470.375 -351.353C469.735 -348.247 470.717 -343.491 472.842 -341.203C518.483 -292.638 575.022 -264.789 641.774 -256.838C644.42 -256.526 648.285 -258.503 650.248 -260.583C671.121 -282.666 691.771 -304.987 712.48 -327.159C714.695 -329.478 716.925 -334.01 721.088 -328.036H721.028ZM131.903 325.988C143.216 313.846 153.995 302.478 164.387 290.782C165.769 289.222 166.007 285.418 165.085 283.337C160.984 273.215 156.5 263.251 151.646 253.467C132.497 214.992 106.748 181.556 71.9747 155.178C69.5514 153.365 65.9833 150.883 63.783 151.522C46.8795 156.233 30.0801 161.672 13.013 166.962C20.8032 194.945 33.321 219.465 51.8896 240.345C77.624 269.249 104.682 296.95 131.903 325.988V325.988ZM770.297 -83.7098C752.754 -108.096 735.747 -131.487 719.14 -155.22C704.645 -175.921 691.265 -197.425 676.22 -217.814C668.147 -228.796 657.696 -238.114 647.646 -248.858C634.727 -234.963 623.086 -222.643 611.817 -209.937C610.628 -208.555 611.267 -204.573 612.367 -202.448C619.979 -187.914 627.472 -173.306 635.767 -159.128C655.942 -124.785 681.468 -94.9148 714.74 -71.9103C716.91 -70.4094 720.226 -68.5666 722.352 -69.1759C738.556 -73.7382 754.627 -78.8652 770.297 -83.7098V-83.7098ZM305.264 429.924C372.581 416.609 436.924 395.967 506.085 395.67C500.599 380.869 495.752 367.004 490.147 353.332C488.514 350.002 485.668 347.423 482.194 346.124C463.67 340.239 444.596 340.477 425.596 343.479C389.187 349.245 355.618 363.6 321.707 376.797C320.674 377.242 319.745 377.897 318.979 378.721C318.214 379.545 317.629 380.519 317.262 381.582C313.173 397.141 309.486 412.745 305.264 429.924V429.924ZM-8.72223 -40.5392C-6.75981 -39.4097 -5.95701 -38.6667 -5.02041 -38.4587C10.0396 -35.3676 25.0105 -32.2617 40.1449 -29.5422C42.1073 -29.2004 45.0806 -30.6716 46.6565 -32.2022C92.357 -76.4874 116.01 -130.551 120.782 -192.922C120.901 -195.166 121.184 -198.316 119.92 -199.579C107.685 -211.959 95.1222 -224.011 81.3259 -237.445C75.0967 -160.183 46.8944 -94.469 -8.76683 -40.5392H-8.72223ZM86.4846 -242.408C98.7795 -229.925 110.42 -217.962 122.373 -206.252C123.696 -204.929 126.818 -204.469 128.84 -204.84C178.168 -214.232 223.973 -231.278 261.749 -265.101C277.612 -279.293 277.552 -279.367 271.903 -299.102C268.712 -310.249 265.501 -321.389 262.269 -332.524C214.324 -280.749 153.37 -256.333 86.4846 -242.468V-242.408ZM68.362 143.467C86.0684 137.969 102.452 133.005 118.731 127.522C120.812 126.838 122.938 123.539 123.354 121.176C125.257 110.194 127.339 99.197 127.859 88.1405C129.078 61.8369 120.931 36.9897 115.46 11.6074C111.892 -4.76919 105.083 -13.5965 87.2577 -14.5773C75.3791 -15.2015 63.6641 -18.8126 51.0868 -21.2647C52.737 34.4485 71.3651 87.1003 68.362 143.393V143.467ZM769.331 -77.3791C754.285 -72.7722 740.786 -68.2694 727.05 -64.5542C720.835 -62.8898 718.278 -59.7988 717 -53.6315C706.801 -4.26394 712.331 44.1674 723.883 92.5988C726.47 103.388 731.019 108.173 742.169 109.481C754.568 110.892 766.788 114.073 778.147 116.257C772.973 83.9795 766.967 52.4746 763.101 20.7022C759.251 -11.5903 762.12 -43.8828 769.331 -77.3791V-77.3791ZM666.482 293.784C693.138 229.17 718.174 165.476 778.043 122.38C761.198 118.977 746.213 115.722 731.093 113.032C728.744 112.601 725.221 113.909 723.318 115.574C712.257 125.203 700.587 134.373 690.879 145.176C670.749 167.616 657.428 194.232 645.728 221.561C640.183 234.371 634.875 247.285 629.271 260.63L666.482 293.784V293.784ZM50.4029 -27.5508C69.6108 -23.687 87.1536 -20.061 104.801 -16.8808C106.703 -16.539 109.588 -18.5452 111.268 -20.2244C146.517 -55.2513 165.323 -97.5898 169.129 -146.452C169.307 -148.815 169.07 -152.069 167.628 -153.6C154.991 -166.811 142.072 -179.666 129.212 -192.61C128.454 -192.342 127.651 -192.06 126.967 -191.778C121.273 -128.589 97.4266 -73.5153 50.4029 -27.5657V-27.5508ZM460.518 -337.072C395.862 -317.604 332.678 -309.906 267.948 -335.853C272.037 -321.23 276.021 -308.658 278.965 -295.833C280.57 -288.685 284.451 -285.163 291.245 -282.547C342.699 -262.857 393.707 -268.905 444.655 -284.42C445.673 -284.846 446.589 -285.482 447.345 -286.286C448.1 -287.09 448.678 -288.044 449.041 -289.086C452.921 -304.378 456.43 -319.774 460.518 -337.072V-337.072ZM467.148 -338.394C463.283 -321.943 459.715 -307.38 456.548 -292.727C456.39 -291.54 456.479 -290.334 456.809 -289.183C457.139 -288.032 457.703 -286.962 458.466 -286.04C496.421 -245.098 543.311 -220.652 599.27 -212.999C601.708 -212.687 605.216 -212.687 606.614 -214.098C618.076 -225.809 629.122 -237.891 641.462 -251.087C572.346 -260.137 514.826 -288.284 467.148 -338.394V-338.394ZM605.216 -203.31C592.817 -190.039 581.147 -177.734 569.908 -165.132C568.808 -163.869 569.298 -160.288 570.25 -158.356C574.457 -149.707 578.902 -141.206 583.57 -132.721C600.533 -101.81 621.585 -74.1246 650.783 -53.1708C653.191 -51.4321 656.759 -49.099 659.034 -49.738C676.458 -54.642 693.644 -60.1703 712.896 -66.1443C662.097 -101.528 631.114 -149.855 605.216 -203.31V-203.31ZM130.49 -199.104C139.544 -190.054 147.736 -181.687 156.106 -173.499C172.667 -157.36 172.727 -157.3 195.443 -163.096C231.034 -172.236 263.518 -187.111 289.996 -212.939C293.564 -216.461 294.724 -219.508 293.163 -224.531C289.238 -236.613 286.116 -248.917 282.607 -261.148C281.566 -264.893 280.303 -268.638 278.742 -273.571C237.784 -230.936 186.612 -210.814 130.49 -199.119V-199.104ZM712.079 -59.769C695.621 -54.7164 680.918 -49.8718 665.962 -45.7256C660.119 -44.076 657.488 -41.3416 656.209 -35.3676C647.438 6.74792 652.522 48.1056 663.732 89.0471C664.341 91.4397 667.999 94.07 670.764 94.7536C680.457 97.1759 690.358 98.7957 700.23 100.757C706.816 102.021 713.327 103.343 721.103 104.844C706.533 50.1712 699.591 -3.40202 712.079 -59.8136V-59.769ZM718.813 110.967C716.004 110.149 714.309 109.525 712.629 109.183C699.13 106.434 685.764 103.403 672.147 101.307C668.281 100.713 663.197 101.679 659.956 103.848C644.851 113.865 632.051 126.63 623.339 142.115C609.141 167.453 596.504 193.608 583.243 219.347C597.619 232.231 610.42 243.659 624.558 256.276C647.037 201.543 668.415 147.643 718.813 110.967V110.967ZM72.7031 148.044C120.069 183.681 149.951 229.764 171.181 281.569C172.444 281.197 173.084 281.227 173.366 280.9C180.755 273.128 188.084 265.266 195.399 257.435C208.095 243.674 208.095 243.644 200.305 226.465C184.263 191.111 162.454 160.022 131.1 135.992C128.647 134.105 124.663 132.114 122.18 132.812C106.228 137.27 90.4689 142.486 72.7031 148.044V148.044ZM446.751 -278.981C392.012 -262.842 338.655 -257.121 283.841 -279.441C289.03 -261.014 293.653 -244.385 298.5 -227.83C298.842 -226.7 300.343 -225.645 301.562 -225.11C343.561 -207.263 386.125 -209.581 428.822 -222.346C430.859 -222.97 433.669 -224.531 434.085 -226.18C438.396 -243.166 442.321 -260.286 446.751 -278.981ZM600.102 -206.832C571.32 -211.498 544.783 -219.003 519.896 -231.679C495.217 -244.311 473.868 -261.267 453.754 -281.789L441.176 -228.305C444.343 -225.333 447.331 -222.792 449.977 -220.087C478.373 -191.421 512.611 -173.528 552.796 -166.752C556.364 -166.172 561.686 -166.113 563.678 -168.134C575.884 -180.305 587.406 -193.174 600.102 -206.832V-206.832ZM511.303 392.207C526.714 372.907 545.754 356.807 567.351 344.816C590.751 331.665 614.746 319.553 638.458 306.921C645.104 303.414 651.675 299.729 659.019 295.761C647.111 285.121 636.288 275.208 625.138 265.668C623.77 264.434 620.143 264.092 618.463 264.94C593.263 278.091 567.975 291.184 543.058 304.93C525.696 314.394 510.465 327.322 498.309 342.914C496.719 345.024 495.499 348.769 496.302 351.043C500.733 364.329 505.817 377.391 511.318 392.207H511.303ZM136.229 329.852C139.455 330.416 141.194 330.788 142.919 331.025C160.744 333.388 178.629 335.231 196.365 338.203C243.522 346.094 279.292 369.322 299.139 413.25C299.6 414.246 300.581 415.123 301.86 416.787C305.264 402.996 308.609 390.201 311.493 377.347C312.073 375.013 311.493 372.145 310.69 369.842C297.756 334.265 273.241 310.577 235.167 302.433C215.32 298.198 194.953 296.296 174.823 293.517C172.92 293.249 170.155 293.636 169.055 294.825C158.217 306.045 147.661 317.532 136.229 329.807V329.852ZM-5.80834 -32.871C12.1953 31.1642 32.3249 93.3567 12.9387 160.617C29.4408 155.46 44.263 151.017 58.9216 146.068C60.5272 145.488 62.0882 142.085 62.0882 139.99C62.1477 127.819 62.668 115.559 61.1665 103.507C56.0969 62.684 50.3286 21.9208 44.6049 -18.8572C44.3076 -20.5662 42.2411 -23.0034 40.6206 -23.3601C25.7538 -26.5997 10.7384 -29.4679 -5.80834 -32.7967V-32.871ZM485.39 339.912C479.473 323.967 474.032 308.942 468.145 294.096C467.416 292.224 464.279 290.292 462.109 290.069C450.26 288.969 438.381 287.067 426.681 287.825C401.289 289.43 378.215 299.833 354.28 307.204C337.956 312.256 329.244 320.697 327.505 337.505C326.405 348.294 322.658 358.845 319.834 370.615C336.618 364.388 351.797 358.369 367.259 353.049C398.821 342.216 430.77 332.928 464.919 336.673C471.4 337.356 477.778 338.679 485.39 339.912V339.912ZM492.273 340.759C525.084 299.149 574.531 284.303 617.214 258.356C604.696 247.166 592.877 236.466 580.835 225.989C579.556 224.875 576.271 224.444 574.769 225.246C551.562 237.64 527.998 249.529 505.668 263.245C495.157 269.71 486.788 279.681 477.972 288.509C476.232 290.233 475.385 294.364 476.143 296.697C480.945 310.934 486.371 324.962 492.273 340.759V340.759ZM315.448 361.981C319.194 346.585 322.777 332.11 326.182 317.576C326.524 316.165 326.018 314.471 325.498 313.014C315.983 285.343 298.723 264.583 268.959 257.048C251.878 252.754 234.171 250.851 216.628 248.37C214.205 248.058 210.741 250.094 208.779 252.055C201.732 259.069 195.072 266.485 188.352 273.797C184.427 278.062 180.621 282.446 176.057 287.528C190.924 289.46 204.259 291.109 217.535 292.952C260.976 299.03 294.842 318.379 313.069 359.321C313.367 359.9 314.065 360.361 315.448 361.981V361.981ZM177.677 -145.516L175.314 -144.297C170.304 -94.796 151.2 -51.5064 114.449 -14.8448C130.252 -11.7092 144.48 -8.72216 158.707 -6.19583C160.432 -5.88375 163.153 -7.45901 164.639 -8.90051C192.158 -36.4673 206.935 -69.7406 210.161 -108.022C210.325 -110.103 209.7 -112.867 208.303 -114.308C198.283 -124.874 187.95 -135.173 177.677 -145.516V-145.516ZM649.653 -46.6172C608.799 -75.8782 584.343 -115.244 563.292 -158.222C553.064 -147.299 543.668 -137.491 534.748 -127.341C533.618 -126.018 533.9 -122.496 534.807 -120.594C538.762 -112.406 543.029 -104.337 547.474 -96.3712C560.452 -73.2181 576.33 -52.3684 598.14 -36.3336C600.37 -34.6692 604.012 -32.8413 606.331 -33.4803C620.291 -37.2995 634.058 -41.7726 649.653 -46.6172V-46.6172ZM217.922 -115.304C230.618 -102.449 242.853 -89.981 255.312 -77.706C256.471 -76.5469 259.207 -76.2645 261.021 -76.5766C279.084 -79.8906 296.329 -85.4634 311.954 -95.3161C326.821 -104.768 326.821 -104.738 322.108 -121.724L319.923 -129.184C316.92 -139.794 313.872 -150.405 310.809 -161.135C278.727 -146.556 244.979 -137.669 217.922 -115.304V-115.304ZM648.523 -40.1082C636.526 -36.4079 623.383 -32.5589 610.449 -28.1452C608.353 -27.4171 606.42 -24.2814 605.826 -21.9483C597.634 12.2464 601.559 45.921 610.791 79.2984C611.172 80.3307 611.788 81.2603 612.591 82.0135C613.393 82.7667 614.36 83.3227 615.415 83.6377C628.973 86.6247 642.621 89.1957 656.358 91.9449C652.909 69.624 648.003 48.0907 646.724 26.3642C645.416 4.65256 647.765 -17.3266 648.523 -40.1082V-40.1082ZM657.176 98.1864C648.226 96.4031 641.149 96.0019 634.965 93.4904C615.593 85.6291 602.213 93.8025 590.602 107.995C587.436 111.873 583.511 115.321 581.251 119.586C570.202 141.045 559.379 162.619 548.782 184.305C548.143 185.523 548.44 188.094 549.362 188.941C559.114 197.932 569.075 206.759 580.002 216.508C598.288 172.282 615.653 128.8 657.176 98.1864V98.1864ZM115.638 -8.61814C128.275 35.4293 141.313 78.0203 129.018 124.208C136.452 121.993 142.458 120.255 148.405 118.353C175.923 109.704 176.666 108.426 177.202 79.4172C177.603 53.3217 169.59 28.8459 162.543 4.17702C162.142 2.67607 160.7 0.565825 159.376 0.283469C145.298 -2.763 131.159 -5.49737 115.638 -8.61814V-8.61814ZM212.391 239.171C222.203 228.679 231.019 219.421 239.479 209.88C240.11 209.014 240.54 208.016 240.735 206.962C240.931 205.908 240.887 204.823 240.609 203.787C227.57 170.648 208.883 141.253 179.907 119.021C178.242 117.728 175.403 116.227 173.678 116.748C160.402 120.567 147.201 124.832 132.482 129.439C170.735 158.67 194.73 195.985 212.391 239.171V239.171ZM314.095 -172.473C315.656 -172.845 316.875 -173.424 318.02 -173.32C319.521 -173.202 321.082 -172.681 322.524 -172.087C353.67 -159.336 385.114 -161.357 416.676 -170.319C418.713 -170.898 421.522 -172.488 421.939 -174.123C425.566 -187.81 428.673 -201.63 432.331 -217.145C388.132 -204.513 345.315 -200.932 300.953 -219.389C305.725 -202.165 309.828 -187.557 314.095 -172.473ZM439.808 -221.871L429.179 -176.634C432.985 -173.573 436.122 -171.493 438.768 -168.877C460.919 -146.824 487.352 -132.542 518.498 -126.955C520.907 -126.524 524.594 -126.093 525.872 -127.386C536.071 -137.64 545.853 -148.325 556.855 -160.109C510.247 -167.599 472.322 -187.676 439.808 -221.871V-221.871ZM596.43 -30.1217C564.11 -54.3448 544.738 -85.8349 528.132 -120.49C515.272 -106.655 503.542 -94.0826 492.645 -82.3426L502.665 -63.722C512.016 -46.4537 522.929 -30.2852 538.792 -17.9656C541.111 -16.1823 545.214 -14.6219 547.741 -15.3352C563.441 -19.6895 578.947 -24.757 596.43 -30.1217V-30.1217ZM218.739 -105.986C217.922 -105.555 217.119 -105.065 216.316 -104.604C211.693 -66.4564 196.766 -32.8858 168.549 -4.11532C186.493 -0.533868 202.758 2.86925 219.141 5.69281C221.222 6.03461 224.404 3.90952 226.128 2.06678C243.195 -15.9891 252.844 -37.5224 256.01 -61.8347C256.352 -64.4205 256.01 -68.0019 254.449 -69.7258C242.794 -82.0305 230.737 -93.9637 218.799 -105.986H218.739ZM464.725 284.259C459.938 271.166 455.835 259.396 451.167 247.864C450.29 245.725 447.138 243.272 444.893 243.154C434.382 242.455 423.321 240.36 413.39 242.752C391.863 247.879 370.975 255.443 349.879 262.131C348.318 262.651 346.296 264.122 345.895 265.534C342.268 279.444 338.922 293.443 335.161 308.586C377.546 293.145 417.761 274.807 464.725 284.259ZM600.057 -25.0096C584.849 -20.3433 571.231 -15.7216 557.315 -12.0956C550.834 -10.4312 548.425 -6.96861 547.325 -1.05401C543.237 21.787 545.154 44.3012 550.893 66.6072C551.354 68.5094 553.272 71.1992 554.952 71.541C571.097 75.0779 587.302 78.1689 604.726 81.6612C595.91 46.0993 591.464 11.4737 600.057 -25.0096V-25.0096ZM604.785 87.7393C591.048 84.9603 578.709 83.3256 566.89 79.8036C556.141 76.5788 548.544 79.8334 541.572 87.2192C540.115 88.7201 538.494 90.1022 537.126 91.6626C522.408 107.608 514.559 127.195 506.724 146.766C506.204 148.059 506.605 150.601 507.571 151.477C518.84 161.865 530.243 172.045 542.538 182.997C557.375 147.064 571.454 112.23 604.785 87.7393V87.7393ZM179.447 108.604C194.849 103.819 208.348 99.3159 222.025 95.5115C227.392 94.0105 229.637 91.1276 230.737 86.0452C234.364 68.8067 230.276 52.2666 227.674 35.3252C224.894 17.3734 216.777 7.84762 197.644 7.50582C190.656 7.32749 183.684 4.84574 176.666 3.52313C174.273 3.06245 171.85 2.72065 168.505 2.1708C178.659 37.4504 188.872 71.2884 179.417 108.604H179.447ZM573.149 219.02C562.846 209.761 553.019 200.756 542.924 192.136C541.795 191.126 538.42 191.527 536.77 192.404C522.691 199.537 508.077 206.016 494.934 214.576C482.773 222.497 472.084 232.647 460.964 242.054C459.403 243.376 457.797 246.438 458.318 248.043C462.406 260.362 467.089 272.504 472.025 285.997C498.785 252.13 538.36 239.884 573.149 219.02ZM246.734 202.316C257.869 190.323 268.082 179.549 278.058 168.448C279.218 167.081 279.559 164.035 278.905 162.311C269.881 138.89 256.947 118.026 236.936 101.931C235.033 100.43 231.986 98.5877 230.187 99.1078C214.844 103.551 199.665 108.485 183 113.731C213.343 137.612 232.491 167.363 246.734 202.316V202.316ZM328.308 303.578C328.893 303.307 329.473 303.025 330.047 302.731C331.95 295.241 333.912 287.721 335.637 280.261C336.737 275.55 339.19 270.2 337.971 265.995C331.593 244.075 319.655 225.707 296.285 218.678C281.983 214.353 266.804 212.897 251.982 210.371C250.376 210.073 247.834 210.371 246.853 211.366C237.338 221.234 228.046 231.324 217.372 242.767C265.139 246.542 308.594 254.611 328.308 303.578V303.578ZM420.155 -165.073C384.772 -155.175 350.875 -154.091 315.344 -168.075L330.404 -114.68C334.894 -114.472 338.476 -115.14 341.361 -114.056C361.728 -106.298 382.259 -106.878 402.969 -112.094C405.228 -112.674 408.112 -115.126 408.692 -117.221C412.662 -132.498 416.051 -147.894 420.095 -165.073H420.155ZM520.059 -120.624C485.45 -127.118 457.084 -141.786 433.698 -165.504C429.952 -169.338 427.246 -168.446 426.027 -163.319C422.4 -147.983 418.772 -132.617 415.397 -118.439C419.723 -115.586 423.678 -113.714 426.607 -110.95C441.206 -97.0697 458.11 -87.3358 477.942 -82.8925C480.439 -82.3426 484.305 -82.5506 485.717 -84.0516C497.06 -95.5984 507.958 -107.591 520.059 -120.624V-120.624ZM212.822 -119.168C237.174 -138.665 266.358 -149.038 295.036 -160.451C298.722 -161.865 302.258 -163.642 305.591 -165.756C306.974 -166.618 308.386 -169.159 308.074 -170.482C304.61 -183.693 300.745 -196.786 296.641 -211.26C263.533 -178.239 222.739 -162.413 179.417 -153.362C190.493 -142.009 201.405 -130.878 212.822 -119.168V-119.168ZM535.892 185.717C523.954 175.047 512.983 164.956 501.625 155.326C500.287 154.167 496.719 154.286 494.86 155.178C486.089 159.353 477.035 163.336 469.022 168.76C459.329 175.269 450.438 183.027 441.488 190.531C439.942 191.824 438.5 194.886 439.021 196.431C443.867 210.549 449.13 224.518 454.764 239.795C476.128 212.629 507.378 202.494 535.892 185.717V185.717ZM347.917 256.186C380.683 244.298 411.666 231.042 447.197 237.15C442.113 223.433 437.028 210.906 432.881 198.11C430.933 192.062 427.484 190.279 421.418 189.982C400.62 188.941 382.081 196.669 363.378 203.772C362.055 204.278 360.494 205.675 360.212 206.878C356.123 222.824 352.199 238.814 347.917 256.186V256.186ZM252.74 204.62C291.676 207.503 325.423 215.988 341.346 256.93C345.508 239.973 349.017 225.752 352.481 211.515C352.659 210.787 352.942 209.821 352.6 209.241C347.649 200.889 343.606 191.616 337.257 184.349C324.859 170.202 306.795 169.043 289.372 167.393C288.108 167.245 286.368 168.523 285.387 169.578C275.01 180.575 264.737 191.706 252.74 204.62V204.62ZM463.58 -51.016L470.285 -41.6686C479.057 -29.4381 487.59 -17.0442 496.614 -5.02184C498.042 -3.14938 501.848 -1.2472 503.84 -1.82677C514.469 -4.53143 524.832 -8.05344 535.119 -11.2782C526.467 -21.1458 517.696 -29.7948 510.619 -39.6475C503.453 -49.5151 497.982 -60.5269 491.857 -71.1375C489.478 -75.3432 487.011 -76.324 483.442 -72.4007C476.738 -65.1189 469.943 -57.852 463.58 -51.016V-51.016ZM545.928 75.9695C535.075 73.785 526.363 71.7045 517.532 70.5008C514.044 70.1011 510.523 70.8919 507.542 72.7448C490.697 84.4997 483.725 102.615 476.619 120.552C476.188 121.756 476.961 124.178 478.076 125.144C485.108 131.742 492.333 138.088 500.287 145.176C511.169 119.452 521.278 94.2483 545.928 75.9695V75.9695ZM542.389 -7.22122C531.849 -3.96671 522.676 -1.57414 513.905 1.79926C512.387 2.47573 511.025 3.45662 509.902 4.6811C508.779 5.90558 507.92 7.34755 507.378 8.91759C503.23 25.3239 504.509 41.7897 508.597 58.0772C509.058 59.8307 510.455 62.4611 511.823 62.7731C522.453 65.2549 533.172 67.2463 545.006 69.6686C538.821 43.7662 536.294 19.231 542.389 -7.22122ZM264.737 -62.0279L262.017 -60.2892C258.27 -34.6246 247.596 -12.0213 229.25 7.92192C240.846 10.2848 250.881 12.6179 261.035 14.104C263.459 14.4458 267.086 12.6328 268.826 10.6712C279.562 -1.11924 286.409 -15.9271 288.435 -31.7416C288.732 -33.8221 288.316 -36.6159 287.052 -38.0277C279.857 -46.2308 272.245 -54.0773 264.737 -62.0279V-62.0279ZM227.704 13.6879C234.736 39.412 242.407 64.066 235.896 90.8749C245.767 87.8284 253.944 84.9752 262.314 82.8352C267.859 81.4234 269.866 78.273 270.625 73.0865C273.167 55.848 268.201 39.7538 263.414 23.6149C263.013 22.114 260.694 20.3901 259.028 20.0038C249.216 17.8341 239.419 15.9913 227.704 13.6879V13.6879ZM285.045 161.003C292.598 152.874 299.124 145.994 305.294 139.024C306.394 137.79 307.093 135.101 306.513 133.644C299.763 116.257 290.531 100.401 275.59 88.4229C274.029 87.1598 271.145 86.2829 269.301 86.8179C259.727 89.478 250.272 92.6433 239.419 96.0465C261.05 113.686 274.891 135.368 285.105 161.003H285.045ZM406.061 -105.629C394.257 -104.47 383.463 -102.286 372.848 -102.746C361.892 -103.237 351.098 -106.491 340.142 -108.23C335.295 -108.988 333.095 -106.046 334.225 -101.662C336.915 -91.4523 339.963 -81.3023 342.223 -73.441C347.991 -73.1289 352.317 -73.649 356.064 -72.4899C368.286 -68.745 381.281 -68.2888 393.736 -71.1673C395.773 -71.628 398.464 -73.8274 398.999 -75.7295C401.631 -85.4039 403.712 -95.3012 406.061 -105.6V-105.629ZM263.816 -70.8403C272.29 -62.1022 280.139 -53.9139 288.212 -45.8445C288.911 -45.2203 290.695 -45.2203 291.854 -45.4432C306.721 -48.1479 321.157 -52.4724 333.511 -61.478C335.414 -62.8304 337.376 -66.2335 336.975 -68.1654C334.552 -78.3896 331.43 -88.4652 328.204 -99.7892C309.04 -83.903 287.186 -76.0119 263.816 -70.8403ZM405.942 -77.2602C410.788 -74.4069 414.386 -72.2075 417.999 -70.0824C428.331 -64.0341 438.56 -57.852 449.07 -52.0414C450.78 -51.0903 454.527 -50.7782 455.582 -51.8036C463.417 -59.5313 470.85 -67.6601 478.834 -76.1754C448.803 -85.8052 444.402 -88.168 422.013 -107.279C417.687 -110.979 414.059 -110.92 412.543 -105.347C409.778 -95.4201 407.8 -85.2999 405.942 -77.2602V-77.2602ZM494.221 148.461C486.327 141.387 479.651 135.22 472.649 129.32C471.341 128.19 468.501 127.046 467.371 127.641C453.352 135.145 437.757 140.54 427.737 153.855C426.577 155.415 424.719 157.704 425.18 159.027C428.198 168.225 431.706 177.261 435.571 187.782C451.479 168.062 473.571 160.305 494.221 148.461V148.461ZM292.538 161.924C321.276 163.946 343.65 172.624 354.726 199.359C357.952 189.491 360.316 180.084 362.576 170.633C362.813 169.682 362.917 168.448 362.457 167.69C359.691 163.247 356.629 158.982 353.923 154.539C345.731 141.164 332.292 138.192 317.871 137.181C316.607 137.092 314.809 138.103 313.842 139.143C307.197 146.068 300.685 153.157 292.538 161.924V161.924ZM427.677 184.528C424.421 175.76 421.195 168.151 418.846 160.305C417.166 154.895 414.119 152.057 408.514 153.335C396.977 155.98 385.56 159.012 374.142 162.043C372.819 162.4 371.079 163.767 370.797 164.941C367.972 175.299 365.43 185.731 362.427 197.665C384.281 189.491 404.366 182.105 427.677 184.528V184.528ZM491.768 2.21539C482.417 -12.1401 473.363 -25.9607 464.413 -39.7961C462.005 -43.541 458.719 -45.0717 455.359 -41.8766C448.223 -34.8029 441.622 -27.2536 435.928 -21.1161C439.273 -17.3117 441.845 -14.7705 443.882 -11.8578C448.506 -5.31905 452.653 1.63581 457.559 7.95166C458.868 9.63093 462.703 10.8346 464.814 10.2551C474.225 7.86247 483.457 4.74173 491.768 2.21539V2.21539ZM503.929 67.6623C492.809 65.3886 483.576 63.3973 474.285 61.7626C472.768 61.4654 470.776 62.4165 469.319 63.3676C457.738 71.0358 452.713 83.0284 447.97 95.1994C447.569 96.2397 448.268 98.3202 449.13 99.1821C455.924 105.513 462.867 111.65 470.523 118.575C478.432 99.3456 486.163 81.4829 503.929 67.6623ZM500.301 60.7521V5.94544C490.073 9.05135 480.35 12.0087 470.717 15.1146C469.735 15.4118 468.516 16.8087 468.516 17.7598C468.338 28.7716 468.115 39.8429 468.516 50.8697C468.576 52.4152 471.772 54.7334 473.824 55.2536C482.759 57.4084 491.887 59.0431 500.301 60.7521V60.7521ZM278.89 76.5491C309.858 68.3311 313.56 73.3986 305.532 37.3612C305.13 35.6076 304.788 33.7351 303.926 32.1748C303.168 30.7035 301.964 28.7419 300.581 28.4298C290.769 26.1859 280.853 24.2985 271.784 22.4855C274.282 41.225 276.586 58.9837 278.89 76.5491ZM314.199 129.676C320.428 122.974 327.297 115.618 335.429 106.85C328.798 97.2205 322.272 87.3529 315.344 77.842C314.021 76.0587 310.676 74.1566 308.936 74.5875C299.421 77.0693 290.13 80.2643 282.235 82.7461C292.969 98.4985 303.406 113.775 314.199 129.676ZM396.695 -65.4459C380.832 -62.34 366.515 -62.9195 352.332 -67.3035C350.89 -67.7047 345.702 -63.0384 346.044 -61.5077C348.289 -51.1052 351.53 -40.8958 354.875 -29.1558C359.082 -35.1447 362.784 -35.8134 368.151 -33.9112C372.938 -32.2468 378.542 -32.1279 383.731 -32.3063C385.872 -32.4251 389.083 -34.7286 389.663 -36.6605C392.309 -45.5472 394.153 -54.6866 396.695 -65.4459ZM396.635 -37.5967C401.898 -34.9366 405.823 -33.183 409.451 -31.058C413.955 -28.3681 418.103 -25.1136 422.771 -22.7211C424.362 -21.874 427.826 -21.9631 428.926 -23.0628C435.988 -29.988 442.544 -37.2995 449.546 -44.7448C442.143 -48.1776 435.467 -50.6296 429.506 -54.2705C423.47 -57.8966 418.267 -62.8601 412.483 -66.932C408.038 -70.023 404.173 -68.953 402.79 -63.7369C400.337 -54.4786 398.419 -45.1163 396.635 -37.5967V-37.5967ZM274.966 16.8978C279.173 17.7598 284.555 18.9189 289.832 19.9889C308.416 23.7635 311.404 22.0991 317.812 4.22157C318.555 2.03704 319.373 -0.221802 319.596 -2.49551C319.774 -4.14505 319.536 -6.38902 318.555 -7.47386C311.285 -15.2312 303.852 -22.7508 297.102 -29.6462C289.49 -13.5965 282.384 1.2197 274.891 16.8978H274.966ZM420.898 148.267C435.453 139.009 449.234 130.271 463.58 121.102C456.786 115.053 450.081 108.946 443.109 103.18C441.949 102.199 438.842 102.021 437.623 102.838C429.55 108.099 421.775 113.657 414.044 119.319C412.885 120.166 411.666 122.439 412.008 123.584C414.832 132.054 418.029 140.465 420.898 148.267V148.267ZM296.181 -38.6667C303.421 -31.4295 310.884 -23.8951 318.496 -16.4944C319.254 -15.8108 320.919 -15.3352 321.9 -15.6324C329.69 -17.9953 337.48 -20.3285 345.033 -23.3304C346.594 -23.9545 348.318 -27.4765 347.917 -29.2152C345.672 -38.6964 342.758 -48.0439 340.305 -56.5442C325.438 -50.5107 310.943 -44.6259 296.181 -38.6667ZM363.393 159.16C364.092 159.071 364.716 158.982 365.356 158.863L372.685 129.26C369.741 126.689 367.719 125.471 366.5 123.777C364.538 121.087 363.393 117.699 361.252 115.187C356.406 109.451 345.152 105.988 341.643 109.392C334.775 115.96 328.486 123.138 320.874 131.311C341.301 133.332 355.945 141.179 363.393 159.16ZM413.063 145.667C410.803 139.44 408.618 132.574 405.689 126.036C404.351 123.212 401.125 118.68 399.46 118.962C392.978 120.062 383.538 121.013 381.174 125.248C376.446 133.674 375.629 144.225 373.101 154.375C386.987 151.358 399.683 148.624 413.063 145.667V145.667ZM452.817 13.9406C447.554 5.66309 443.064 -1.88621 438.099 -9.21258C435.081 -13.7749 431.007 -15.5284 426.458 -10.9364C422.132 -6.49304 418.044 -1.76733 413.94 2.72063C417.107 4.80115 420.556 6.06432 422.295 8.48663C430.948 20.6576 430.769 20.8062 445.384 16.3629C447.851 15.5752 450.319 14.743 452.817 13.9406V13.9406ZM440.641 91.4397C447.732 80.2792 454.318 69.8766 461.291 58.835C454.586 57.9137 445.815 53.9904 440.641 56.6951C434.278 59.9496 429.952 68.3459 426.785 75.3751C425.863 77.4853 431.632 82.6421 434.62 86.1641C436.493 88.2892 438.902 89.9684 440.641 91.4397V91.4397ZM319.373 71.0506L339.904 101.783C345.033 96.2545 349.879 90.9641 354.666 85.852C351.039 79.8185 347.976 74.112 344.111 68.9107C342.788 67.0679 339.264 65.4035 337.124 65.8047C331.088 66.949 325.2 69.2376 319.373 71.0506V71.0506ZM316.251 65.4629C318.733 64.7645 321.513 63.9918 324.219 63.1298C338.937 58.5378 339.74 57.3341 335.756 42.8597C334.879 39.7538 332.931 35.5036 330.389 34.5525C324.383 32.3085 317.752 31.6992 311.226 30.4658C312.965 42.3395 314.526 53.4554 316.251 65.4629V65.4629ZM460.652 52.5192V18.2948L438.084 25.101C437.965 27.8651 437.965 29.8862 437.742 31.9073C436.092 47.6597 436.032 47.6597 451.88 50.9439C454.705 51.4938 457.545 51.9694 460.652 52.5192ZM386.987 -25.0245C379.197 -26.1539 372.388 -27.9075 365.698 -27.6846C362.694 -27.6251 357.164 -23.3006 357.387 -21.4282C358.249 -14.2801 361.015 -7.38469 362.397 -2.48062C368.522 -3.10478 372.953 -3.31285 377.234 -4.18964C379.256 -4.6206 382.215 -5.94319 382.78 -7.5333C384.623 -13.1061 385.604 -18.9613 386.987 -25.0245V-25.0245ZM434.813 96.1654C418.267 80.829 420.675 76.0141 401.244 94.9765C403.548 100.951 405.957 107.058 408.335 113.24L434.813 96.1654V96.1654ZM421.775 -15.0826C415.472 -19.5408 410.134 -24.222 403.95 -27.3279C401.512 -28.5465 395.015 -27.1793 394.316 -25.4852C391.774 -18.991 390.808 -11.9024 389.811 -7.38472C396.561 -4.50172 401.69 -2.36174 407.577 0.0605663L421.775 -15.0826ZM350.058 100.089C358.487 106.523 366.158 112.334 374.811 118.947C376.595 112.111 378.557 104.859 379.88 99.6576C376.417 96.3734 373.711 94.5901 372.09 92.1084C367.645 85.2427 364.538 84.7225 358.874 90.652C355.663 94.07 352.422 97.5177 350.058 100.089V100.089ZM327.163 -0.964833C322.316 8.90274 318.57 16.452 314.467 24.7444C321.276 26.0967 327.906 27.9692 334.552 28.3258C336.856 28.5042 340.201 25.2199 341.465 22.7084C342.624 20.5388 342.565 16.5115 341.182 14.6093C337.198 9.22968 332.292 4.56339 327.163 -0.964833V-0.964833ZM351.039 -18.5898C342.55 -15.4839 334.938 -12.69 327.267 -9.82188C326.643 -8.81135 326.003 -7.77109 325.305 -6.73083C329.006 -4.18963 332.976 -2.06452 336.202 0.877915C344.795 8.81358 344.616 8.94733 356.971 2.83954L351.039 -18.5898V-18.5898ZM400.307 111.502C398.063 105.424 396.16 100.103 394.019 94.8576C393.617 93.8917 392.027 92.4353 391.372 92.6434C390.094 93.0149 388.414 94.1294 388.072 95.2737C386.169 101.619 384.638 108.009 382.765 115.351L400.307 111.502ZM364.478 34.3147C371.406 31.2088 377.398 26.8249 383.924 26.0075C390.57 25.2348 397.646 27.9989 404.53 29.1729C389.752 15.8873 367.719 19.1567 364.478 34.3147ZM422.236 23.1097L423.946 20.4793C419.248 16.779 414.773 12.4248 409.421 9.95787C407.904 9.25941 403.697 14.1932 400.129 17.0465C404.098 18.8 407.666 19.2161 408.544 20.9103C412.364 28.4447 417.33 24.9227 422.236 23.1097V23.1097ZM430.71 53.9756C422.176 50.7508 418.608 52.2814 414.104 59.801C410.015 66.6369 415.174 68.7175 419.307 71.868C423.277 65.6859 426.964 59.8307 430.71 53.9756V53.9756ZM366.738 72.0611C364.597 68.5689 363.274 63.962 360.227 61.9855C357.342 60.2022 352.615 61.183 346.787 60.8115C350.236 65.9236 352.213 68.5837 353.938 71.3924C359.691 80.9182 359.87 80.9479 366.738 72.0611V72.0611ZM344.527 56.3978C349.656 54.7037 355.767 55.5508 354.964 47.4814C354.22 39.4417 350.058 36.4398 341.866 37.2572C342.728 43.4244 343.591 49.4281 344.527 56.3978V56.3978ZM419.01 30.8522C421.24 45.6832 421.24 45.6832 431.409 45.2077C430.651 39.7835 429.952 34.4187 429.253 29.0688C425.804 29.6781 422.355 30.2874 419.01 30.8522V30.8522ZM381.397 4.68226C380.356 3.38937 379.316 2.09649 378.23 0.848181C374.365 2.54231 368.998 3.30021 367.095 6.21293C365.43 8.84329 367.496 13.8217 367.957 17.7746C368.998 18.0124 370.098 18.2353 371.124 18.4434C374.588 13.8514 377.992 9.22967 381.397 4.68226V4.68226ZM394.569 77.3962C396.264 80.4575 397.706 83.2365 399.386 86.2235L412.706 77.0098C406.522 65.7453 400.947 72.8042 394.569 77.3962V77.3962ZM384.222 12.3504L387.002 15.07C392.012 12.5288 397.096 10.0024 402.106 7.43153C401.868 6.16836 401.586 4.92003 401.363 3.65686C397.602 3.13673 392.993 1.07109 390.406 2.49773C387.388 4.16214 386.169 8.9176 384.222 12.3504V12.3504ZM385.247 79.6996C381.01 77.9163 377.814 76.5342 373.889 74.8698L368.864 80.4575C373.131 83.5188 376.833 86.1046 380.46 88.7052C382.2 85.4804 383.88 82.2705 385.247 79.6996V79.6996ZM361.49 22.9016L359.305 9.40801C355.841 10.9089 353.418 11.9195 349.909 13.4204C353.819 16.6155 356.525 18.8595 361.49 22.9016ZM356.926 32.8732L357.967 30.4509C355.321 27.7611 352.659 25.0564 349.433 21.7127C347.768 25.3388 346.668 27.7908 345.226 30.8522L356.926 32.8732" fill="white"/>
<rect opacity="0.2" x="-29" y="-29" width="108" height="108" rx="54" fill="#E11D2E"/>
<rect width="50" height="50" rx="25" fill="#E11D2E"/>
<g opacity="0.7">
<path d="M35.334 13.3335H28.6673C27.9309 13.3335 27.334 13.9304 27.334 14.6668V21.3335C27.334 22.0699 27.9309 22.6668 28.6673 22.6668H35.334C36.0703 22.6668 36.6673 22.0699 36.6673 21.3335V14.6668C36.6673 13.9304 36.0703 13.3335 35.334 13.3335Z" fill="white"/>
<path d="M21 27.667H14.3333C13.597 27.667 13 28.2639 13 29.0003V35.667C13 36.4034 13.597 37.0003 14.3333 37.0003H21C21.7364 37.0003 22.3333 36.4034 22.3333 35.667V29.0003C22.3333 28.2639 21.7364 27.667 21 27.667Z" fill="white"/>
<path d="M17.6667 22.6668C18.2795 22.6668 18.8863 22.5461 19.4525 22.3116C20.0187 22.0771 20.5331 21.7333 20.9665 21.3C21.3998 20.8666 21.7436 20.3522 21.9781 19.786C22.2126 19.2198 22.3333 18.613 22.3333 18.0002C22.3333 17.3873 22.2126 16.7805 21.9781 16.2143C21.7436 15.6481 21.3998 15.1337 20.9665 14.7003C20.5331 14.267 20.0187 13.9232 19.4525 13.6887C18.8863 13.4542 18.2795 13.3335 17.6667 13.3335C16.429 13.3335 15.242 13.8252 14.3668 14.7003C13.4917 15.5755 13 16.7625 13 18.0002C13 19.2378 13.4917 20.4248 14.3668 21.3C15.242 22.1751 16.429 22.6668 17.6667 22.6668Z" fill="white"/>
<path d="M36.6673 35.667L32.0006 27.667L27.334 35.667C27.334 36.4034 27.9309 37.0003 28.6673 37.0003H35.334C36.0703 37.0003 36.6673 36.4034 36.6673 35.667Z" fill="white"/>
</g>
</g>
<defs>
<clipPath id="clip0_0_1">
<rect width="1920" height="10131" fill="white" transform="translate(-565 -1331)"/>
</clipPath>
</defs>
</svg>
